<?xml version="1.0" standalone="no"?>
<!DOCTYPE svg PUBLIC "-//W3C//DTD SVG 20010904//EN"
 "http://www.w3.org/TR/2001/REC-SVG-20010904/DTD/svg10.dtd">
<svg version="1.0" xmlns="http://www.w3.org/2000/svg"
 width="12232.000000pt" height="1920.000000pt" viewBox="0 0 12232.000000 1920.000000"
 preserveAspectRatio="xMidYMid meet">

<g transform="translate(0.000000,1920.000000) scale(0.100000,-0.100000)"
fill="#000000" stroke="none">
<path d="M25485 19190 c-2230 -65 -4115 -860 -5630 -2375 -929 -929 -1645
-2113 -2074 -3430 -364 -1115 -541 -2322 -541 -3690 0 -2701 705 -4913 2115
-6630 377 -460 890 -973 1322 -1322 1147 -928 2484 -1489 3983 -1673 714 -87
1494 -91 2225 -9 1613 179 3064 797 4297 1828 429 359 867 802 1222 1235 1169
1429 1865 3266 2040 5386 37 445 41 553 41 1180 0 649 -5 797 -46 1250 -181
2031 -823 3735 -1924 5110 -209 261 -340 406 -614 681 -678 678 -1373 1185
-2180 1588 -1258 630 -2651 916 -4236 871z m835 -3286 c666 -63 1257 -245
1786 -550 748 -430 1397 -1146 1849 -2039 438 -864 680 -1853 745 -3040 22
-414 11 -1097 -25 -1545 -129 -1585 -609 -2887 -1425 -3870 -129 -155 -399
-431 -545 -557 -672 -581 -1449 -911 -2370 -1008 -325 -34 -821 -29 -1135 11
-807 103 -1468 377 -2070 858 -217 174 -516 483 -716 741 -935 1203 -1394
2780 -1394 4787 0 1504 267 2724 829 3785 236 445 555 890 879 1225 728 751
1663 1159 2792 1218 202 11 604 3 800 -16z"/>
<path d="M10 9675 l0 -9085 1890 0 1890 0 2 5823 3 5824 2092 -3391 c1151
-1865 2767 -4484 3592 -5821 l1500 -2430 1855 -3 1856 -2 -2 9082 -3 9083
-1887 3 -1888 2 0 -5827 c0 -3621 -4 -5823 -9 -5817 -6 5 -500 803 -1099 1774
-1910 3097 -5566 9020 -5831 9450 l-256 415 -1853 3 -1852 2 0 -9085z"/>
<path d="M35380 17075 l0 -1685 2730 0 2730 0 0 -7400 0 -7400 1890 0 1890 0
0 7400 0 7400 2720 0 2720 0 0 1685 0 1685 -7340 0 -7340 0 0 -1685z"/>
<path d="M58610 9675 l0 -9085 6740 0 6740 0 -2 1592 -3 1593 -4847 3 -4848 2
0 2310 0 2310 4250 0 4250 0 0 1620 0 1620 -4250 0 -4250 0 0 1965 0 1965
4720 0 4720 0 0 1595 0 1595 -6610 0 -6610 0 0 -9085z"/>
<path d="M73866 18398 c175 -517 526 -1557 779 -2303 354 -1046 640 -1890 873
-2580 121 -357 318 -938 437 -1290 119 -352 268 -791 330 -975 62 -184 167
-495 233 -690 66 -195 220 -650 342 -1010 122 -360 268 -792 325 -960 155
-458 463 -1367 1200 -3545 367 -1083 764 -2256 882 -2605 118 -349 262 -774
320 -945 58 -170 150 -444 205 -607 l100 -298 1788 0 c1693 0 1788 1 1795 17
4 10 125 367 270 793 145 426 419 1234 610 1795 191 561 387 1137 435 1280
138 405 238 701 515 1515 141 415 297 872 345 1015 48 143 206 607 350 1030
144 424 297 874 340 1000 43 127 278 820 523 1540 245 721 676 1987 957 2815
282 828 550 1618 597 1755 138 409 367 1081 606 1785 96 283 252 740 345 1015
94 275 193 567 221 649 28 82 51 153 51 158 0 4 -901 8 -2002 8 l-2003 0 -178
-603 c-98 -331 -416 -1403 -707 -2382 -290 -979 -704 -2374 -920 -3100 -215
-726 -427 -1439 -470 -1585 -43 -146 -128 -456 -189 -690 -121 -470 -573
-2210 -991 -3820 -149 -575 -310 -1195 -357 -1378 -48 -183 -89 -329 -93 -325
-4 4 -25 80 -48 168 -22 88 -103 403 -181 700 -259 1000 -610 2352 -922 3555
-171 657 -332 1278 -359 1380 -26 102 -125 435 -218 740 -94 305 -351 1145
-572 1865 -221 721 -530 1729 -686 2240 -157 512 -362 1180 -456 1485 -93 305
-237 776 -320 1045 -82 270 -164 537 -182 595 l-32 105 -2006 3 -2005 2 123
-362z"/>
<path d="M91940 9675 l0 -9085 6740 0 6740 0 0 1595 0 1595 -4850 0 -4850 0 0
2310 0 2310 4250 0 4250 0 0 1620 0 1620 -4250 0 -4250 0 0 1965 0 1965 4720
0 4720 0 0 1595 0 1595 -6610 0 -6610 0 0 -9085z"/>
<path d="M108100 9675 l0 -9085 1885 0 1885 0 0 3520 0 3521 1888 -4 c1718 -3
1900 -4 2031 -20 322 -39 584 -96 797 -172 142 -51 384 -174 489 -250 510
-367 806 -1007 899 -1945 16 -160 39 -401 176 -1880 44 -476 95 -1034 115
-1240 19 -206 57 -625 85 -930 28 -305 53 -565 56 -578 l4 -22 1940 0 1940 0
-5 28 c-3 15 -21 151 -40 302 -32 256 -345 2702 -400 3125 -14 105 -88 681
-165 1280 -163 1267 -170 1317 -256 1643 -213 819 -590 1416 -1124 1781 -334
229 -781 413 -1302 535 -78 19 -136 36 -128 39 8 3 74 22 145 43 704 200 1322
508 1818 903 170 135 456 421 586 584 473 597 757 1321 856 2187 16 143 44
597 44 715 0 220 -30 615 -65 870 -137 995 -520 1851 -1154 2580 -762 876
-1972 1387 -3595 1519 -425 35 -560 36 -4987 36 l-4418 0 0 -9085z m8121 5915
c234 -11 461 -38 640 -76 992 -209 1586 -848 1726 -1854 22 -160 25 -632 4
-790 -60 -469 -205 -845 -452 -1172 -88 -117 -305 -331 -427 -422 -442 -327
-1020 -510 -1787 -566 -88 -6 -867 -10 -2097 -10 l-1958 0 0 2443 c0 1344 3
2447 7 2450 10 11 4113 8 4344 -3z"/>
</g>
</svg>
