<?xml version="1.0" standalone="no"?>
<!DOCTYPE svg PUBLIC "-//W3C//DTD SVG 20010904//EN"
 "http://www.w3.org/TR/2001/REC-SVG-20010904/DTD/svg10.dtd">
<svg version="1.0" xmlns="http://www.w3.org/2000/svg"
 width="3189.000000pt" height="3189.000000pt" viewBox="0 0 3189.000000 3189.000000"
 preserveAspectRatio="xMidYMid meet">

<g transform="translate(0.000000,3189.000000) scale(0.100000,-0.100000)"
fill="#000000" stroke="none">
<path d="M14390 30760 c0 -5 -11 -10 -26 -10 -18 0 -42 -17 -82 -59 -80 -83
-109 -116 -129 -148 -10 -16 -20 -30 -24 -33 -27 -22 -201 -342 -269 -495 -13
-27 -37 -81 -55 -120 -51 -110 -223 -561 -265 -692 -12 -40 -28 -73 -34 -73
-6 0 -22 18 -35 40 -30 48 -253 280 -269 280 -7 0 -12 5 -12 10 0 6 -11 10
-25 10 -14 0 -28 7 -31 15 -4 10 -20 15 -50 15 -32 0 -44 -4 -44 -15 0 -10
-11 -15 -35 -15 -19 0 -35 -4 -35 -10 0 -5 -6 -10 -14 -10 -13 0 -23 -7 -87
-62 -105 -92 -273 -373 -385 -644 -40 -98 -54 -131 -78 -186 -9 -20 -16 -42
-16 -50 0 -8 -4 -18 -9 -23 -5 -6 -21 -46 -36 -90 -15 -44 -31 -89 -35 -100
-5 -11 -52 -148 -104 -305 -157 -471 -272 -797 -400 -1135 -59 -154 -63 -165
-89 -225 -9 -19 -29 -70 -46 -112 -17 -42 -40 -98 -52 -125 -11 -26 -25 -57
-29 -68 -46 -113 -193 -411 -233 -473 -54 -83 -76 -102 -122 -102 -35 0 -43 4
-58 30 -25 42 -43 164 -58 385 -13 208 -10 744 13 2300 23 1550 17 2012 -26
2155 -16 56 -41 64 -51 18 -4 -18 -11 -37 -15 -43 -7 -9 -18 -57 -60 -270 -19
-92 -61 -353 -85 -525 -28 -201 -30 -215 -39 -275 -4 -22 -9 -60 -11 -85 -3
-25 -12 -83 -19 -130 -8 -47 -24 -150 -36 -230 -12 -80 -41 -269 -65 -420 -25
-151 -47 -291 -50 -310 -2 -19 -14 -84 -24 -145 -11 -60 -27 -150 -36 -200
-44 -251 -88 -442 -127 -555 -30 -85 -208 -452 -233 -480 -7 -8 -30 -46 -51
-85 -20 -38 -46 -83 -57 -98 -10 -16 -30 -49 -44 -75 -14 -26 -28 -49 -33 -52
-4 -3 -17 -23 -29 -45 -27 -51 -117 -197 -129 -211 -6 -6 -20 -31 -32 -54 -12
-24 -28 -49 -34 -56 -24 -23 -158 -306 -213 -449 -80 -207 -246 -692 -272
-795 -7 -25 -16 -54 -21 -65 -5 -11 -23 -69 -39 -129 -17 -59 -32 -111 -35
-114 -6 -5 0 68 14 168 5 36 12 99 16 140 4 41 8 82 9 90 1 8 5 47 9 85 4 39
11 102 16 140 10 78 23 186 45 380 25 222 28 410 11 655 -9 124 -21 254 -26
290 -25 177 -30 209 -40 255 -6 28 -13 64 -16 80 -18 108 -110 407 -145 477
-5 10 -9 22 -9 28 0 13 -23 65 -108 240 -64 134 -190 433 -429 1020 -68 168
-130 319 -137 335 -8 17 -47 111 -86 210 -40 99 -83 203 -95 230 -13 28 -62
146 -110 264 -48 118 -93 220 -101 228 -8 8 -14 19 -14 24 0 31 -120 159 -149
159 -10 0 -21 7 -25 15 -3 8 -15 15 -26 15 -11 0 -23 -7 -26 -15 -4 -8 -14
-15 -23 -15 -48 -1 -135 -137 -190 -297 -35 -103 -93 -325 -116 -443 -3 -14
-16 -92 -29 -175 -24 -147 -33 -212 -57 -405 -6 -52 -20 -153 -30 -223 -10
-70 -18 -131 -17 -135 2 -8 -5 -68 -33 -272 -10 -80 -24 -181 -29 -225 -6 -44
-16 -129 -24 -190 -8 -60 -22 -166 -31 -235 -9 -69 -20 -156 -25 -195 -13 -95
-41 -314 -44 -345 -2 -14 -7 -52 -12 -85 -4 -33 -7 -63 -6 -67 1 -4 -7 -65
-17 -135 -10 -70 -24 -173 -31 -228 -7 -55 -20 -161 -31 -235 -10 -74 -23
-180 -29 -235 -7 -55 -18 -139 -26 -187 -8 -48 -19 -120 -25 -160 -5 -40 -12
-89 -15 -108 -3 -19 -9 -62 -14 -95 -5 -33 -16 -109 -25 -170 -8 -60 -20 -132
-25 -160 -5 -27 -14 -86 -20 -130 -16 -129 -40 -293 -55 -390 -16 -103 -43
-298 -50 -365 -9 -81 -25 -214 -35 -285 -30 -211 -84 -702 -101 -915 -6 -74
-12 -155 -14 -179 -2 -25 -7 -79 -11 -120 -4 -42 -7 -80 -6 -85 2 -5 -2 -52
-7 -105 -6 -53 -15 -150 -21 -216 -6 -66 -15 -158 -20 -205 -10 -84 -38 -374
-45 -460 -2 -25 -6 -65 -9 -90 -3 -25 -8 -70 -11 -100 -3 -30 -8 -75 -11 -100
-3 -25 -7 -63 -9 -85 -3 -38 -17 -156 -36 -315 -5 -41 -13 -113 -19 -160 -5
-47 -14 -114 -19 -150 -5 -36 -14 -105 -20 -155 -7 -49 -14 -100 -16 -111 -2
-12 -6 -48 -10 -80 -3 -33 -10 -79 -15 -104 -5 -25 -17 -94 -26 -155 -9 -60
-24 -155 -34 -210 -51 -274 -63 -331 -70 -351 -5 -11 -11 -38 -14 -60 -8 -47
-99 -381 -131 -479 -12 -38 -39 -135 -60 -215 -20 -80 -57 -221 -80 -315 -39
-152 -67 -263 -111 -450 -12 -51 -45 -211 -74 -360 -40 -197 -86 -481 -94
-570 -2 -22 -9 -92 -15 -155 -6 -63 -15 -162 -21 -220 -5 -58 -18 -193 -29
-300 -25 -240 -39 -377 -46 -455 -4 -33 -15 -132 -26 -220 -11 -88 -24 -196
-29 -240 -5 -44 -11 -100 -15 -125 -15 -109 -48 -322 -61 -405 -8 -49 -17
-106 -20 -125 -2 -19 -9 -57 -15 -85 -6 -27 -15 -68 -19 -90 -51 -241 -59
-272 -82 -319 -10 -22 -18 -43 -18 -48 0 -8 -66 -104 -87 -125 -15 -17 -81
-17 -96 0 -49 53 -77 183 -102 487 -17 203 -20 629 -5 751 6 46 15 125 21 174
5 50 14 124 19 165 10 77 35 311 45 410 10 100 40 363 65 570 19 160 31 262
50 435 11 99 24 216 29 260 18 147 24 200 26 230 1 17 6 55 10 85 4 30 9 69
10 85 2 30 8 83 26 230 67 554 99 964 120 1540 12 349 7 1292 -10 1570 -18
316 -31 545 -41 740 -5 105 -14 273 -20 375 -6 102 -15 271 -20 375 -5 105
-14 273 -20 375 -5 102 -12 241 -15 310 -3 69 -9 181 -14 250 -5 69 -10 163
-11 209 0 47 -3 87 -5 91 -2 3 -4 47 -5 96 -2 166 -45 712 -80 1024 -6 52 -15
133 -20 180 -10 97 -48 398 -60 480 -5 30 -14 91 -20 135 -6 44 -13 91 -16
105 -4 26 -19 119 -33 210 -12 75 -46 255 -69 370 -11 52 -34 163 -50 245 -17
83 -78 323 -136 535 -57 212 -173 637 -256 945 -83 308 -162 594 -175 635 -65
198 -104 318 -115 345 -20 49 -27 68 -45 120 -9 28 -21 60 -26 73 -5 12 -13
32 -18 45 -5 12 -19 44 -31 71 -12 27 -30 72 -41 100 -12 28 -30 69 -41 91
-11 22 -25 48 -30 58 -37 73 -113 213 -118 217 -3 3 -21 30 -40 60 -19 30 -43
64 -52 74 -10 11 -18 23 -18 28 0 10 -135 148 -144 148 -4 0 -17 11 -30 25
-13 14 -28 25 -35 25 -6 0 -11 5 -11 10 0 6 -7 10 -15 10 -9 0 -18 7 -21 15
-4 8 -15 15 -25 15 -10 0 -19 5 -19 10 0 6 -9 10 -19 10 -10 0 -21 7 -25 15
-3 8 -17 15 -31 15 -14 0 -25 5 -25 10 0 6 -20 10 -45 10 -25 0 -45 5 -45 10
0 6 -33 10 -80 10 -47 0 -80 -4 -80 -10 0 -5 -18 -10 -39 -10 -22 0 -43 -4
-46 -10 -3 -5 -17 -10 -31 -10 -14 0 -27 -7 -30 -15 -4 -8 -12 -15 -19 -15 -6
0 -24 -11 -39 -25 -15 -14 -31 -25 -37 -25 -5 0 -9 -4 -9 -10 0 -5 -5 -10 -10
-10 -22 0 -120 -110 -201 -225 -33 -46 -179 -306 -179 -318 0 -3 -18 -44 -41
-91 -47 -99 -91 -218 -161 -436 -27 -85 -54 -164 -59 -175 -5 -11 -19 -51 -30
-90 -11 -38 -29 -97 -39 -130 -11 -33 -33 -107 -50 -165 -17 -58 -34 -112 -37
-120 -9 -21 -116 -395 -164 -575 -92 -338 -186 -719 -234 -945 -9 -41 -20 -91
-25 -110 -5 -19 -23 -105 -41 -190 -17 -85 -35 -175 -40 -200 -5 -25 -11 -56
-13 -70 -2 -14 -11 -59 -20 -100 -15 -71 -36 -193 -58 -325 -5 -33 -13 -82
-18 -110 -5 -27 -13 -81 -19 -120 -6 -38 -12 -79 -15 -90 -4 -20 -13 -87 -21
-155 -3 -19 -11 -80 -19 -135 -63 -421 -111 -912 -131 -1325 -3 -63 -10 -164
-15 -225 -5 -60 -9 -117 -8 -125 1 -8 -1 -73 -5 -145 -70 -1166 -100 -2506
-85 -3755 8 -709 19 -1021 58 -1675 6 -93 12 -204 15 -245 2 -41 8 -111 12
-155 4 -44 6 -87 5 -95 -1 -8 3 -53 8 -100 5 -47 12 -112 14 -145 7 -93 25
-280 36 -382 5 -51 15 -135 20 -185 13 -119 38 -305 61 -463 6 -38 14 -97 19
-130 14 -98 78 -461 115 -650 8 -44 19 -107 25 -140 6 -33 14 -78 19 -100 5
-22 15 -67 21 -100 12 -61 27 -129 54 -245 8 -36 22 -99 31 -140 55 -253 279
-1085 304 -1130 5 -9 12 -31 16 -50 4 -19 13 -48 20 -65 7 -16 24 -68 39 -115
15 -47 31 -94 36 -105 5 -11 18 -49 30 -85 38 -117 112 -312 163 -430 8 -19
31 -73 49 -120 65 -160 79 -186 112 -199 17 -7 39 -17 48 -22 10 -5 25 -9 33
-9 9 0 18 -7 21 -15 4 -8 17 -15 30 -15 13 0 24 -4 24 -10 0 -5 11 -10 24 -10
13 0 27 -7 30 -16 4 -10 14 -14 25 -11 12 3 22 -1 25 -9 3 -8 15 -14 26 -14
11 0 20 -4 20 -10 0 -5 11 -10 24 -10 13 0 26 -7 30 -15 3 -8 14 -15 25 -15
11 0 23 -4 26 -10 3 -6 15 -10 26 -10 11 0 22 -7 25 -15 4 -8 17 -15 30 -15
13 0 24 -4 24 -10 0 -5 9 -10 19 -10 11 0 23 -4 26 -10 3 -5 15 -10 26 -10 11
0 22 -7 25 -15 4 -8 17 -15 30 -15 13 0 24 -4 24 -10 0 -5 11 -10 24 -10 13 0
26 -7 30 -15 3 -8 14 -15 25 -15 11 0 23 -4 26 -10 3 -6 15 -10 26 -10 10 0
19 -4 19 -10 0 -5 8 -10 19 -10 10 0 24 -7 31 -15 7 -8 21 -15 31 -15 10 0 21
-4 24 -10 3 -5 15 -10 26 -10 11 0 22 -7 25 -15 4 -8 17 -15 30 -15 13 0 24
-4 24 -10 0 -5 11 -10 24 -10 13 0 26 -7 30 -15 3 -8 12 -12 21 -9 8 4 17 -1
21 -10 3 -9 17 -16 30 -16 13 0 24 -4 24 -10 0 -5 11 -10 24 -10 13 0 26 -7
30 -15 3 -8 14 -15 25 -15 11 0 23 -4 26 -10 3 -5 14 -10 24 -10 37 0 93 -79
170 -240 8 -15 49 -171 72 -270 18 -79 15 -577 -5 -800 -30 -328 -37 -388 -66
-555 -37 -214 -51 -291 -67 -365 -8 -41 -19 -93 -23 -115 -22 -109 -32 -157
-50 -235 -11 -47 -27 -116 -36 -155 -34 -155 -181 -684 -246 -884 -19 -61 -58
-195 -173 -606 -30 -110 -58 -207 -62 -215 -3 -8 -32 -105 -64 -215 -31 -110
-71 -249 -89 -310 -43 -148 -73 -290 -125 -585 -3 -19 -8 -42 -10 -50 -2 -8
-7 -28 -9 -45 -3 -16 -10 -52 -16 -80 -5 -27 -17 -90 -25 -140 -8 -49 -20
-112 -26 -140 -6 -27 -15 -68 -20 -90 -4 -22 -18 -92 -29 -155 -12 -63 -28
-146 -35 -185 -8 -38 -16 -83 -19 -100 -3 -16 -10 -52 -16 -80 -6 -27 -19 -99
-30 -160 -10 -60 -24 -132 -29 -160 -10 -45 -39 -203 -56 -310 -4 -22 -9 -78
-12 -123 -4 -71 -3 -83 10 -80 15 3 35 38 184 328 41 80 78 147 82 150 4 3 18
25 32 50 13 25 29 50 34 57 6 7 16 19 23 27 6 8 12 18 12 21 0 10 152 205 160
205 3 0 13 11 20 25 7 14 19 25 27 25 7 0 13 3 13 8 0 11 46 62 57 62 6 0 19
11 29 25 10 14 23 25 28 25 5 0 24 11 42 25 18 14 37 25 43 25 6 0 11 5 11 10
0 6 11 10 25 10 14 0 28 7 31 15 4 10 20 15 45 15 21 0 39 5 39 10 0 13 147
13 155 0 3 -6 21 -10 40 -10 20 0 35 -6 39 -15 3 -8 12 -15 19 -15 20 0 77
-30 77 -41 0 -5 7 -9 15 -9 8 0 15 -4 15 -10 0 -5 5 -10 11 -10 13 0 109 -98
109 -111 0 -5 7 -9 15 -9 8 0 15 -3 15 -7 0 -5 10 -20 23 -34 12 -15 33 -41
47 -59 32 -41 78 -96 110 -131 14 -15 39 -45 57 -66 17 -21 39 -48 50 -59 10
-12 29 -36 43 -54 14 -19 46 -56 71 -84 26 -28 78 -89 115 -136 87 -108 94
-116 124 -148 14 -15 41 -47 60 -71 19 -23 42 -51 50 -61 8 -9 26 -32 40 -50
14 -18 43 -52 65 -75 57 -61 106 -122 134 -169 14 -23 27 -43 31 -46 14 -11
101 -162 139 -243 98 -208 214 -541 262 -757 12 -52 30 -131 40 -175 44 -189
77 -367 108 -585 6 -41 15 -100 21 -130 9 -53 12 -74 25 -190 3 -30 10 -86 15
-125 5 -38 14 -119 20 -180 30 -307 65 -599 81 -685 6 -30 13 -65 15 -78 4
-19 7 -21 18 -10 18 19 52 112 71 199 39 181 94 467 108 564 3 17 8 46 11 65
3 19 8 49 11 65 3 17 10 62 16 100 10 67 19 122 34 210 14 88 65 417 81 525 9
63 20 140 25 170 5 30 13 93 19 140 6 47 13 97 15 112 3 14 9 66 15 115 10 96
34 301 50 428 5 44 14 127 19 185 6 58 16 158 22 222 9 91 9 143 0 235 -31
306 -43 426 -51 523 -17 186 -30 333 -35 395 -3 33 -8 80 -11 105 -4 25 -8 64
-9 87 -2 24 -6 71 -10 105 -3 35 -8 86 -10 113 -8 98 -25 282 -35 380 -6 55
-15 147 -20 205 -17 193 -30 325 -40 426 -36 340 -55 645 -75 1189 -2 77 -7
199 -10 270 -3 72 -8 265 -11 430 -3 165 -8 303 -10 307 -5 8 -6 1807 0 1816
2 4 7 124 10 267 3 143 8 301 11 350 3 50 7 149 10 220 13 350 51 868 95 1305
38 373 47 460 53 490 3 14 11 68 17 120 31 270 84 613 131 850 11 52 28 147
39 210 11 63 22 129 26 145 14 73 68 389 123 725 79 479 79 478 96 600 8 58
17 116 20 130 5 30 22 164 35 275 5 44 16 134 24 200 17 146 32 287 47 465 13
152 7 599 -10 830 -16 205 -36 543 -62 1020 -16 302 -18 1039 -3 1275 20 316
52 658 84 885 12 91 29 213 35 260 10 79 18 136 21 155 3 11 9 49 14 85 5 36
20 139 34 230 14 91 30 199 36 240 6 41 15 98 20 125 5 28 14 91 21 140 6 50
14 108 19 130 5 22 13 69 17 105 4 36 7 67 8 70 2 10 17 96 20 120 2 14 10 70
19 125 8 55 24 165 36 245 11 80 25 168 30 195 8 44 17 100 50 335 5 30 20
132 35 225 14 94 30 202 35 242 5 39 16 114 24 165 8 51 25 158 37 238 28 191
86 542 99 605 6 28 12 61 14 75 2 14 10 52 19 85 8 33 21 85 27 115 36 157
138 407 193 470 49 55 93 80 144 80 43 0 51 -4 86 -42 21 -24 46 -56 54 -73 9
-16 19 -32 22 -35 6 -5 61 -118 81 -165 4 -11 15 -36 24 -57 9 -20 16 -43 16
-51 0 -9 4 -18 9 -21 5 -3 12 -23 16 -43 4 -21 10 -42 14 -48 13 -17 66 -224
87 -340 3 -16 11 -61 19 -100 74 -382 73 -1153 -5 -2165 -12 -159 -18 -227
-25 -295 -3 -27 -8 -77 -10 -110 -9 -120 -26 -294 -45 -480 -43 -396 -64 -636
-91 -1030 -24 -350 -55 -935 -52 -970 1 -11 -2 -99 -7 -195 -31 -582 -47
-1534 -90 -5235 -14 -1200 -1 -1897 60 -3075 5 -107 12 -242 15 -300 2 -58 7
-139 10 -180 3 -41 8 -120 10 -175 2 -55 7 -136 10 -180 3 -44 8 -116 10 -160
4 -77 15 -239 35 -520 5 -71 14 -195 20 -275 15 -225 29 -396 40 -505 6 -55
15 -145 20 -200 5 -55 14 -149 20 -210 6 -60 13 -130 15 -155 2 -25 7 -74 11
-110 3 -36 8 -85 10 -110 1 -25 5 -70 9 -100 7 -65 10 -98 19 -205 4 -44 11
-118 16 -165 5 -47 14 -134 20 -195 5 -60 17 -180 26 -265 8 -85 19 -203 24
-261 6 -58 14 -150 20 -205 6 -54 15 -147 20 -205 5 -58 14 -149 20 -203 5
-54 12 -132 15 -174 3 -43 12 -120 20 -172 8 -52 19 -131 26 -175 17 -113 128
-786 144 -870 7 -38 20 -108 29 -155 8 -47 22 -116 31 -155 9 -38 24 -110 34
-160 44 -216 177 -712 212 -790 5 -11 19 -51 32 -90 23 -73 96 -215 109 -215
4 0 8 -7 8 -15 0 -8 6 -15 13 -15 7 0 21 -11 31 -25 16 -22 26 -25 80 -25 61
0 61 0 109 53 89 97 212 402 273 677 9 41 22 102 30 135 13 58 22 106 64 338
11 59 29 158 41 220 11 61 29 159 39 217 10 58 21 121 25 140 4 19 12 68 19
108 12 67 21 92 29 81 2 -2 17 -33 34 -69 17 -36 51 -108 76 -160 25 -52 77
-162 116 -245 39 -82 77 -161 84 -175 7 -14 22 -43 34 -65 11 -22 33 -64 47
-94 25 -51 109 -206 131 -242 6 -9 28 -48 49 -85 103 -182 296 -473 376 -570
14 -16 36 -45 50 -64 14 -18 46 -56 73 -83 26 -28 47 -53 47 -57 0 -4 11 -13
25 -20 14 -7 25 -19 25 -27 0 -7 4 -13 9 -13 5 0 131 -120 279 -267 149 -148
279 -275 289 -284 10 -9 25 -25 34 -35 9 -10 29 -30 45 -44 32 -28 74 -84 74
-99 0 -5 3 -11 8 -13 4 -1 23 -28 42 -58 19 -30 37 -57 40 -60 14 -14 100
-148 100 -158 0 -6 3 -12 8 -14 4 -2 21 -23 37 -48 17 -25 33 -49 38 -55 4 -5
35 -53 70 -105 34 -52 65 -97 69 -98 5 -2 8 -8 8 -13 0 -10 62 -103 73 -107 4
-2 7 -10 7 -17 0 -8 6 -20 13 -27 7 -7 27 -35 44 -63 18 -27 36 -54 41 -60 4
-5 21 -31 37 -57 17 -25 42 -54 58 -63 15 -9 27 -20 27 -25 0 -4 8 -6 18 -3
10 2 24 -3 31 -11 19 -23 107 -22 119 1 6 10 16 14 26 10 10 -4 19 -1 22 8 4
8 12 15 19 15 27 0 117 105 162 189 35 63 64 121 87 173 24 52 189 652 401
1453 48 182 101 373 117 425 44 144 192 591 236 715 58 164 40 115 148 395 86
223 101 263 129 345 9 28 20 59 25 70 4 11 18 49 30 85 12 36 26 74 30 85 23
57 143 434 156 490 4 17 10 35 14 40 9 11 110 390 154 575 15 63 32 133 37
155 6 22 12 51 14 65 4 30 21 118 35 180 37 171 70 520 60 635 -5 50 -11 98
-15 108 -12 28 -67 22 -96 -10 -71 -80 -109 -155 -208 -413 -83 -214 -93 -239
-110 -282 -5 -13 -35 -90 -66 -173 -32 -82 -69 -177 -82 -209 -12 -33 -23 -63
-23 -67 0 -5 -13 -37 -29 -71 -15 -35 -31 -74 -35 -88 -4 -14 -11 -35 -17 -47
-20 -51 -30 -74 -82 -213 -144 -379 -170 -447 -186 -480 -30 -61 -134 -255
-141 -260 -3 -3 -22 -30 -42 -60 -20 -30 -54 -75 -77 -99 -23 -24 -41 -46 -41
-48 0 -8 -64 -65 -101 -90 -21 -14 -39 -30 -39 -34 0 -5 -9 -9 -20 -9 -11 0
-20 -4 -20 -10 0 -5 -7 -10 -15 -10 -9 0 -18 -7 -21 -15 -4 -9 -19 -15 -35
-15 -16 0 -29 -4 -29 -10 0 -5 -20 -10 -45 -10 -33 0 -45 -4 -45 -15 0 -21
-102 -21 -120 0 -8 10 -31 15 -66 15 -30 0 -54 5 -54 10 0 6 -15 10 -34 10
-21 0 -36 6 -40 15 -3 8 -17 15 -31 15 -14 0 -25 5 -25 10 0 6 -11 10 -24 10
-13 0 -27 7 -30 16 -4 9 -13 14 -21 10 -9 -3 -18 1 -21 9 -4 8 -15 15 -25 15
-10 0 -19 5 -19 10 0 6 -9 10 -19 10 -10 0 -21 7 -25 15 -3 8 -12 15 -21 15
-8 0 -15 5 -15 10 0 6 -5 10 -11 10 -6 0 -17 6 -24 13 -33 29 -45 37 -55 37
-5 0 -10 5 -10 10 0 6 -5 10 -10 10 -6 0 -21 11 -34 25 -13 14 -26 25 -29 25
-3 0 -22 16 -43 35 -20 19 -41 35 -45 35 -5 0 -9 7 -9 15 0 8 -7 15 -15 15 -8
0 -15 3 -15 8 0 12 -47 62 -59 62 -6 0 -11 4 -11 8 0 5 -27 37 -60 72 -33 35
-70 77 -82 93 -13 16 -33 41 -46 56 -13 14 -50 62 -82 106 -33 44 -63 85 -67
90 -5 6 -57 85 -118 175 -60 91 -112 167 -115 170 -3 3 -32 46 -65 95 -33 50
-62 92 -65 95 -3 3 -32 46 -65 95 -33 50 -63 91 -67 93 -5 2 -8 8 -8 13 0 6
-18 34 -40 64 -22 30 -40 58 -40 62 0 5 -9 15 -20 23 -11 8 -20 20 -20 26 0 7
-6 19 -12 26 -7 7 -26 33 -43 58 -16 25 -32 47 -35 50 -26 23 -225 392 -317
585 -124 261 -148 315 -233 530 -46 116 -90 225 -98 244 -8 18 -18 45 -22 60
-5 14 -23 64 -40 111 -17 47 -54 155 -82 240 -28 85 -54 164 -59 175 -4 11
-15 47 -24 80 -9 33 -20 69 -25 80 -9 20 -34 103 -96 320 -18 66 -40 138 -48
160 -20 53 -193 701 -235 880 -19 77 -40 164 -48 194 -21 80 -86 370 -144 646
-40 190 -45 213 -67 340 -11 61 -30 162 -42 225 -35 193 -60 337 -71 413 -5
40 -12 83 -14 97 -8 52 -15 107 -20 150 -3 25 -12 92 -20 150 -33 231 -51 381
-64 525 -6 61 -15 157 -21 215 -17 180 -29 348 -40 560 -6 113 -15 275 -20
360 -4 85 -9 202 -10 260 -1 57 -3 107 -6 111 -2 4 -4 60 -4 126 -1 65 -5 199
-10 298 -31 614 -31 2216 0 2770 5 94 9 177 8 185 -1 8 1 83 6 165 4 83 9 184
11 225 9 201 49 756 75 1030 32 353 93 900 115 1040 2 14 6 45 9 70 8 66 44
319 50 360 15 92 27 159 35 200 15 76 90 439 117 560 13 63 28 135 33 160 5
25 28 137 51 250 23 113 46 223 50 245 5 22 20 94 34 160 15 66 31 145 37 175
23 116 29 150 64 315 45 212 74 348 80 383 3 15 12 59 20 97 8 39 24 115 35
170 12 55 25 116 30 135 5 19 16 69 25 110 39 183 197 789 234 900 11 30 32
96 47 145 15 50 31 95 35 100 3 6 9 24 13 40 6 26 22 69 66 180 5 11 20 47 35
80 86 192 131 266 181 291 36 19 90 18 98 -2 3 -8 10 -13 15 -10 13 8 60 -50
84 -103 32 -73 51 -184 76 -441 11 -115 11 -658 0 -745 -5 -38 -11 -94 -13
-125 -8 -103 -25 -249 -55 -481 -9 -68 -64 -400 -76 -459 -3 -14 -14 -77 -25
-140 -11 -63 -31 -167 -45 -230 -13 -63 -31 -149 -40 -190 -31 -153 -105 -451
-190 -770 -104 -390 -111 -503 -64 -945 12 -112 61 -420 86 -535 8 -41 17 -86
20 -100 4 -26 19 -90 52 -230 23 -100 52 -227 75 -325 8 -38 25 -122 36 -185
11 -63 25 -133 30 -155 10 -42 55 -315 65 -400 4 -27 13 -97 21 -155 25 -184
33 -252 44 -360 6 -58 15 -139 20 -180 9 -73 16 -151 26 -302 2 -40 8 -120 13
-178 5 -58 10 -138 11 -179 1 -41 3 -78 6 -83 6 -10 6 -1228 -1 -1553 -10
-509 -20 -1508 -20 -2065 0 -524 12 -1368 20 -1381 2 -3 4 -61 5 -130 2 -255
50 -986 91 -1404 27 -278 83 -635 109 -700 5 -11 14 -37 20 -58 10 -31 16 -38
33 -35 17 2 25 14 35 53 47 182 81 494 97 900 4 103 11 245 35 740 6 110 15
297 20 415 5 118 15 310 20 425 13 264 27 547 39 830 9 195 33 476 46 545 3
14 7 48 10 75 10 90 35 259 46 305 5 25 21 99 34 165 52 256 83 373 148 555
57 160 87 230 131 308 20 35 36 66 36 68 0 17 89 128 173 217 26 28 47 54 47
59 0 4 4 8 10 8 10 0 37 20 72 53 10 9 25 17 33 17 8 0 15 5 15 10 0 6 9 10
19 10 10 0 21 7 25 15 4 12 26 15 105 15 79 0 100 -3 105 -15 3 -8 12 -15 21
-15 22 0 114 -98 153 -163 91 -152 180 -432 249 -782 45 -230 56 -408 102
-1650 10 -270 17 -300 52 -237 9 15 24 61 34 102 9 41 34 140 56 220 32 120
63 260 84 375 26 142 47 260 64 350 22 125 53 292 75 410 8 44 22 116 30 160
8 44 17 96 21 115 4 19 15 85 26 145 11 61 29 157 39 215 11 58 27 150 36 205
9 55 20 103 23 108 4 4 25 -57 45 -135 21 -79 48 -172 61 -208 12 -36 30 -99
39 -140 9 -41 56 -221 102 -400 47 -179 124 -471 171 -650 147 -560 263 -994
273 -1015 5 -11 14 -38 20 -60 6 -22 15 -49 20 -60 5 -11 13 -36 18 -55 10
-38 86 -240 101 -268 12 -22 50 -109 62 -141 23 -60 165 -302 182 -309 4 -2 7
-9 7 -15 0 -7 10 -23 23 -37 12 -14 42 -50 67 -80 25 -30 63 -71 84 -90 22
-19 53 -47 68 -63 16 -15 31 -27 33 -27 2 0 36 -32 74 -70 39 -39 75 -70 81
-70 5 0 10 -5 10 -10 0 -6 25 -35 55 -65 30 -30 55 -58 55 -62 0 -5 9 -15 21
-23 12 -8 55 -58 96 -110 41 -52 80 -102 87 -110 40 -50 163 -267 209 -370 40
-90 78 -246 121 -505 65 -391 68 -971 7 -1425 -22 -164 -146 -681 -190 -791
-5 -13 -19 -55 -31 -94 -12 -38 -25 -79 -30 -90 -5 -11 -36 -89 -70 -173 -33
-84 -64 -160 -69 -170 -33 -61 -201 -444 -201 -457 0 -3 -9 -27 -21 -53 -12
-26 -25 -56 -29 -67 -4 -11 -17 -41 -29 -67 -12 -26 -21 -51 -21 -55 0 -5 -22
-64 -49 -133 -26 -69 -60 -161 -75 -205 -15 -44 -40 -116 -56 -160 -15 -44
-42 -127 -60 -185 -18 -58 -36 -114 -41 -125 -18 -43 -164 -571 -203 -740 -16
-66 -35 -147 -44 -180 -8 -33 -18 -78 -23 -100 -4 -22 -18 -92 -32 -155 -36
-167 -54 -257 -68 -330 -6 -36 -13 -74 -15 -85 -3 -19 -7 -47 -39 -305 -18
-136 -19 -216 -4 -259 10 -28 39 -44 39 -21 0 6 5 10 10 10 6 0 18 8 28 17 11
10 28 25 38 34 17 15 92 96 241 258 32 35 71 76 86 90 75 68 91 81 103 81 6 0
14 7 18 15 3 8 12 15 21 15 8 0 15 5 15 10 0 6 9 10 19 10 10 0 22 7 25 16 3
9 13 14 20 11 8 -3 17 1 20 9 3 8 19 14 36 14 16 0 30 5 30 10 0 6 43 10 110
10 67 0 110 -4 110 -10 0 -5 13 -10 29 -10 17 0 31 -6 35 -16 3 -8 10 -13 15
-10 5 4 16 -1 24 -9 9 -8 20 -15 26 -15 6 0 11 -4 11 -10 0 -5 5 -10 10 -10
30 0 102 -114 212 -335 30 -60 107 -204 170 -320 63 -115 137 -250 163 -300
26 -49 51 -94 55 -100 7 -8 116 -219 198 -380 9 -16 18 -32 22 -35 8 -6 80
-129 80 -136 0 -5 86 -159 150 -269 26 -44 83 -144 126 -223 43 -79 96 -173
117 -210 21 -37 63 -114 94 -172 31 -58 73 -132 93 -165 20 -33 53 -91 74
-130 59 -106 187 -255 221 -255 8 0 15 -4 15 -10 0 -5 9 -10 20 -10 11 0 23
-7 26 -15 9 -22 192 -22 201 1 3 8 12 13 20 10 7 -3 16 1 19 9 4 8 12 15 20
15 8 0 14 5 14 10 0 6 6 10 13 10 6 0 28 19 47 41 19 23 40 47 45 53 86 96
225 381 385 787 10 25 29 68 41 95 36 82 46 106 78 186 17 43 35 86 40 95 5
10 13 29 19 43 5 14 17 41 25 60 9 19 29 70 46 112 17 43 35 86 40 95 9 19 28
63 41 98 5 11 17 41 29 67 12 26 21 50 21 53 0 2 12 30 26 62 14 32 30 68 35
81 5 12 13 32 18 45 5 12 16 38 24 57 8 19 32 76 52 125 42 103 54 131 84 197
11 26 21 50 21 52 0 3 21 49 46 103 26 54 62 130 79 168 18 39 47 101 64 139
18 38 39 87 48 110 9 22 20 46 24 51 4 6 31 69 59 140 28 72 62 153 75 180 12
28 25 61 29 75 4 14 11 35 17 48 22 54 28 70 45 122 10 30 22 59 26 65 4 5 8
15 8 23 0 8 6 28 14 45 14 29 42 113 109 322 26 81 61 212 91 340 22 95 73
346 95 469 12 70 16 76 24 38 3 -15 32 -84 65 -153 33 -68 75 -158 95 -199 58
-123 136 -287 199 -420 83 -172 138 -289 188 -395 64 -138 84 -180 148 -315
33 -69 79 -165 102 -215 23 -49 55 -115 70 -145 44 -89 221 -414 235 -430 7
-8 27 -42 44 -75 36 -68 82 -145 125 -207 16 -24 47 -70 70 -103 35 -53 64
-93 96 -132 6 -7 10 -16 10 -20 0 -5 9 -15 20 -23 11 -8 20 -18 20 -23 0 -4
10 -18 23 -31 12 -12 33 -38 47 -56 24 -33 300 -310 647 -650 93 -91 180 -181
193 -200 14 -19 27 -37 31 -40 3 -3 16 -23 29 -45 13 -22 27 -42 30 -45 3 -3
20 -27 38 -55 17 -27 36 -55 42 -62 5 -7 10 -14 10 -17 0 -3 18 -31 40 -63 44
-63 45 -65 92 -138 18 -27 36 -52 40 -53 5 -2 8 -7 8 -12 0 -7 72 -122 97
-155 5 -5 64 -94 133 -197 77 -117 131 -188 141 -188 9 0 19 -6 22 -14 4 -9
14 -12 26 -9 14 3 23 0 27 -11 8 -22 109 -23 118 -1 3 8 15 15 26 15 11 0 20
5 20 10 0 6 7 10 16 10 19 0 78 60 119 121 16 24 33 46 36 49 9 7 60 108 98
195 27 60 251 856 251 891 0 7 33 136 74 286 41 150 100 368 131 483 31 116
64 235 74 265 11 30 33 102 51 160 42 136 70 221 80 240 4 9 11 31 15 50 4 19
11 41 15 50 5 8 18 44 30 80 12 36 26 74 30 85 5 11 23 61 40 110 18 50 36
100 41 113 5 12 13 32 18 45 24 63 52 117 61 117 10 0 90 76 90 85 0 3 10 16
23 29 12 12 33 38 47 56 14 19 51 61 83 94 31 33 57 62 57 65 0 3 20 19 45 34
25 16 45 33 45 38 0 5 7 9 15 9 8 0 15 5 15 10 0 6 9 10 19 10 10 0 22 7 25
16 4 9 13 14 21 10 9 -3 18 1 21 9 4 9 19 15 35 15 16 0 29 5 29 10 0 6 47 10
120 10 73 0 120 -4 120 -10 0 -5 11 -10 24 -10 14 0 28 -5 31 -10 3 -6 15 -10
26 -10 10 0 19 -7 19 -15 0 -8 9 -15 20 -15 11 0 20 -4 20 -10 0 -5 4 -10 9
-10 5 0 26 -16 47 -35 20 -19 41 -35 45 -35 5 0 9 -7 9 -15 0 -8 7 -15 15 -15
8 0 15 -3 15 -7 0 -5 10 -20 23 -35 68 -81 93 -112 101 -129 5 -11 13 -19 18
-19 4 0 8 -6 8 -14 0 -8 6 -21 13 -28 6 -7 25 -33 41 -58 16 -25 42 -58 58
-75 15 -16 28 -33 28 -36 0 -4 21 -34 48 -68 26 -33 67 -88 92 -121 25 -33 50
-66 55 -73 46 -54 85 -105 85 -110 0 -7 20 -33 63 -79 15 -17 27 -33 27 -37 0
-3 10 -18 23 -33 12 -14 30 -36 39 -47 10 -11 28 -38 42 -58 13 -21 32 -47 43
-58 10 -11 30 -36 43 -55 13 -19 35 -46 48 -60 12 -14 33 -41 44 -60 12 -19
30 -42 40 -51 10 -9 18 -19 18 -23 0 -4 11 -18 25 -32 14 -14 25 -29 25 -35 0
-5 10 -20 23 -33 29 -30 48 -54 70 -89 19 -29 42 -59 64 -82 25 -26 92 -182
138 -320 41 -124 173 -592 188 -670 3 -16 16 -73 28 -125 11 -52 25 -113 29
-135 4 -22 15 -71 24 -110 9 -38 20 -90 25 -115 5 -25 20 -101 34 -170 14 -69
33 -163 41 -210 8 -47 22 -123 31 -170 9 -47 30 -161 47 -255 52 -299 73 -393
105 -472 32 -81 54 -85 73 -10 36 146 72 345 100 552 7 50 16 114 21 144 5 29
7 56 5 60 -2 3 -1 27 4 51 4 25 11 77 15 115 3 39 10 111 16 160 5 50 14 133
19 185 12 118 26 262 40 400 21 206 63 697 75 885 2 33 7 96 10 140 3 44 8
116 10 160 2 44 9 161 14 260 18 320 8 783 -24 1110 -3 33 -8 83 -10 110 -11
138 -25 290 -35 380 -6 55 -15 141 -20 190 -6 50 -14 126 -20 170 -11 90 -25
214 -40 338 -5 45 -14 118 -20 162 -6 44 -13 100 -15 125 -2 25 -9 89 -14 143
-107 987 -145 1572 -158 2407 -8 569 19 1228 67 1650 6 47 15 128 21 180 32
287 104 749 144 915 7 33 16 71 18 85 3 14 12 59 20 100 18 86 52 288 62 370
3 30 8 69 10 85 51 373 73 997 56 1548 -13 406 -20 542 -40 787 -6 74 -13 164
-16 200 -3 36 -7 81 -10 100 -3 19 -7 69 -10 110 -11 145 -50 476 -95 805 -14
105 -27 230 -35 335 -3 47 -10 141 -15 210 -5 69 -9 183 -10 254 0 71 -3 133
-6 137 -6 10 -6 1268 1 1279 2 4 5 90 5 191 0 101 5 281 10 399 5 118 12 280
15 360 8 248 35 805 55 1145 6 94 15 249 20 345 18 308 29 481 40 640 6 85 13
193 15 240 2 47 6 117 10 155 3 39 8 104 11 145 2 41 9 138 15 215 5 77 14
196 19 265 23 311 31 414 40 535 5 72 14 193 20 270 6 77 12 172 15 210 2 39
7 104 10 145 11 149 15 207 25 340 25 338 30 404 40 535 6 77 15 196 20 265 9
118 25 265 36 320 2 14 9 59 14 100 6 41 19 127 31 190 11 63 29 162 39 220
20 111 25 139 60 290 12 52 23 106 25 120 6 37 114 432 124 455 5 11 15 38 21
60 6 22 15 49 19 60 5 11 23 58 41 105 77 197 139 298 208 338 31 17 98 16
106 -3 3 -8 9 -14 13 -13 27 9 97 -86 156 -212 51 -109 80 -192 136 -401 47
-172 60 -225 81 -334 14 -71 89 -437 116 -560 37 -173 83 -392 94 -450 5 -27
15 -72 20 -100 6 -27 13 -63 16 -79 6 -38 53 -267 98 -481 51 -242 97 -463
106 -510 4 -22 22 -110 40 -195 54 -259 83 -416 100 -535 6 -38 14 -95 20
-125 10 -59 12 -74 34 -280 36 -328 56 -670 56 -930 -1 -246 -32 -746 -60
-960 -5 -41 -12 -95 -15 -120 -9 -70 -54 -337 -72 -420 -8 -41 -19 -93 -23
-115 -40 -203 -58 -278 -152 -640 -21 -82 -43 -159 -48 -170 -5 -11 -17 -47
-25 -80 -34 -125 -158 -501 -210 -635 -7 -19 -26 -69 -40 -110 -34 -95 -122
-324 -142 -370 -8 -19 -19 -44 -23 -55 -4 -11 -18 -42 -29 -68 -12 -27 -35
-82 -51 -122 -30 -75 -47 -115 -106 -243 -19 -40 -34 -75 -34 -77 0 -2 -17
-41 -39 -87 -21 -46 -59 -139 -85 -208 -26 -69 -51 -134 -56 -145 -5 -11 -12
-31 -15 -45 -3 -14 -12 -41 -20 -60 -56 -146 -148 -498 -181 -690 -48 -287
-58 -386 -58 -615 -1 -501 70 -985 238 -1615 64 -242 116 -450 152 -610 29
-128 76 -346 84 -385 4 -22 14 -74 23 -115 9 -41 25 -124 37 -185 11 -60 23
-121 26 -135 7 -36 44 -246 54 -310 34 -207 36 -221 70 -455 43 -299 69 -494
90 -675 6 -52 15 -129 20 -170 12 -94 20 -176 25 -237 2 -27 7 -68 10 -93 3
-25 7 -76 10 -115 3 -38 7 -88 10 -110 3 -22 7 -65 10 -95 2 -30 9 -94 15
-143 5 -48 14 -124 20 -170 11 -97 23 -194 44 -337 8 -58 24 -175 36 -260 11
-85 28 -198 36 -250 8 -52 17 -115 19 -140 3 -25 19 -126 36 -225 17 -99 35
-211 40 -250 6 -38 15 -97 20 -130 6 -33 14 -82 18 -110 24 -148 167 -973 200
-1150 45 -248 50 -278 47 -284 -3 -3 -1 -27 4 -51 10 -53 16 -104 30 -225 5
-49 15 -124 20 -165 6 -41 15 -111 20 -155 11 -94 45 -368 59 -475 5 -41 12
-97 15 -125 3 -27 10 -86 16 -130 6 -44 15 -116 20 -160 5 -44 18 -150 29
-235 29 -225 40 -309 46 -365 5 -47 14 -119 66 -530 11 -88 24 -191 28 -230
28 -231 105 -569 173 -755 51 -141 154 -319 186 -320 6 0 12 -7 12 -15 0 -8 7
-15 15 -15 8 0 15 -4 15 -10 0 -5 11 -10 25 -10 14 0 28 -7 31 -15 8 -21 97
-21 114 0 7 8 19 15 26 15 8 0 14 5 14 10 0 6 5 10 11 10 12 0 76 46 104 76
125 132 264 365 356 599 88 225 165 494 200 705 19 114 23 173 23 380 1 161
-4 274 -13 330 -17 109 -56 249 -88 320 -13 30 -28 64 -33 75 -22 52 -62 142
-69 155 -4 8 -38 87 -75 175 -38 88 -74 174 -83 190 -8 17 -35 80 -60 140 -25
61 -49 115 -53 120 -8 10 -44 137 -54 186 -2 13 -16 83 -31 154 -15 72 -33
162 -40 200 -41 222 -58 316 -66 370 -5 33 -11 69 -14 80 -4 20 -20 116 -30
185 -3 19 -10 60 -15 90 -5 30 -23 145 -40 255 -17 110 -35 223 -40 250 -10
55 -38 239 -45 295 -7 54 -19 144 -20 150 -1 5 -6 37 -25 170 -6 36 -19 124
-29 195 -11 72 -29 200 -41 285 -12 85 -30 211 -40 280 -11 69 -22 150 -26
180 -3 30 -7 62 -9 70 -4 26 -15 103 -20 150 -3 25 -12 90 -20 145 -7 55 -23
170 -35 255 -11 85 -25 178 -30 205 -5 28 -14 88 -20 135 -6 47 -15 112 -20
145 -5 33 -12 78 -15 100 -3 22 -12 81 -19 130 -8 50 -18 119 -22 155 -4 36
-8 67 -9 70 -1 3 -5 28 -9 55 -4 28 -11 77 -16 110 -5 33 -14 98 -20 145 -6
47 -15 108 -20 135 -5 28 -17 104 -26 170 -9 66 -20 141 -25 167 -4 26 -13 87
-19 135 -6 48 -13 106 -16 128 -3 22 -9 67 -14 100 -5 33 -16 110 -25 170 -9
61 -24 166 -35 235 -10 69 -22 148 -25 175 -12 98 -16 121 -35 225 -11 58 -24
130 -29 160 -5 30 -19 105 -29 165 -40 220 -61 331 -67 365 -4 19 -15 83 -26
143 -10 59 -28 156 -39 217 -11 61 -29 160 -40 220 -11 61 -29 158 -39 218
-11 59 -22 123 -26 142 -4 19 -16 85 -27 145 -11 61 -29 160 -40 220 -11 61
-24 135 -28 165 -5 30 -18 107 -30 170 -12 63 -30 165 -41 225 -11 61 -22 119
-24 130 -57 300 -74 489 -75 825 0 281 7 399 36 595 8 55 16 115 19 133 4 39
12 81 25 137 5 22 16 74 25 115 24 111 67 274 75 285 4 6 11 26 15 45 4 19 11
41 15 50 5 8 18 44 30 80 12 36 25 74 30 85 5 11 20 54 34 95 14 41 44 127 67
190 22 63 47 133 54 155 8 22 34 99 60 170 26 72 51 141 55 155 7 22 35 100
126 355 14 39 31 88 39 110 7 22 32 92 55 155 23 63 48 133 55 155 7 22 34 99
60 170 25 72 55 157 66 190 11 33 24 69 29 80 5 11 19 49 30 85 12 36 26 74
30 85 15 37 59 159 80 225 12 36 25 74 29 85 5 11 14 33 20 50 7 16 22 56 33
90 26 78 78 224 88 250 8 19 89 264 143 430 50 157 134 491 172 690 13 72 29
153 34 180 32 157 51 400 51 635 0 163 -4 232 -25 470 -15 174 -46 379 -81
535 -8 39 -22 102 -31 140 -15 73 -66 229 -153 475 -29 80 -56 161 -61 180 -6
19 -14 44 -19 55 -5 11 -34 97 -65 190 -31 94 -60 179 -65 190 -4 11 -18 49
-30 85 -12 36 -25 72 -30 80 -4 9 -11 31 -15 50 -4 19 -11 41 -16 50 -5 8 -44
125 -88 260 -52 159 -84 275 -91 330 -6 47 -17 128 -26 180 -13 82 -27 179
-84 560 -6 41 -15 98 -20 125 -5 28 -19 115 -30 195 -25 173 -50 335 -56 370
-2 14 -9 57 -14 97 -5 39 -16 114 -24 165 -14 86 -45 287 -62 403 -4 28 -8 52
-9 55 -1 3 -5 34 -9 70 -4 36 -11 85 -16 110 -5 25 -19 110 -30 190 -31 221
-48 300 -127 600 -46 176 -88 311 -124 398 -5 12 -13 32 -18 45 -38 97 -153
307 -173 315 -5 2 -8 8 -8 13 0 16 -129 139 -145 139 -8 0 -15 5 -15 10 0 6
-11 10 -25 10 -14 0 -25 5 -25 10 0 6 -38 10 -95 10 -57 0 -95 -4 -95 -10 0
-5 -11 -10 -25 -10 -13 0 -29 -8 -34 -17 -6 -10 -11 -14 -11 -8 0 14 -74 -69
-125 -140 -113 -157 -258 -525 -353 -895 -85 -329 -93 -363 -147 -655 -7 -38
-21 -108 -30 -155 -9 -47 -22 -121 -30 -165 -8 -44 -17 -91 -20 -105 -3 -14
-14 -74 -25 -135 -12 -60 -30 -157 -42 -215 -32 -167 -48 -250 -63 -330 -7
-41 -21 -113 -30 -160 -9 -47 -25 -134 -36 -195 -10 -60 -24 -132 -30 -160 -5
-27 -19 -97 -29 -155 -11 -58 -26 -143 -35 -190 -25 -126 -56 -298 -65 -360
-23 -144 -30 -194 -35 -238 -3 -26 -10 -72 -15 -102 -12 -68 -29 -192 -40
-290 -5 -41 -22 -187 -39 -325 -29 -234 -68 -596 -76 -710 -2 -27 -7 -75 -10
-105 -3 -30 -8 -77 -10 -105 -4 -58 -20 -270 -35 -465 -14 -173 -28 -383 -40
-585 -9 -150 -15 -268 -40 -845 -5 -126 -14 -332 -20 -457 -22 -509 -31 -713
-35 -813 -14 -365 -20 -510 -35 -850 -6 -129 -15 -337 -20 -462 -6 -126 -15
-333 -20 -460 -6 -128 -15 -332 -20 -453 -9 -205 -15 -355 -40 -940 -10 -227
-19 -448 -41 -945 -6 -140 -12 -300 -14 -355 -2 -55 -6 -165 -10 -245 -3 -80
-8 -199 -10 -265 -11 -309 -26 -621 -35 -730 -35 -437 -61 -706 -116 -1180 -9
-77 -18 -156 -19 -175 -1 -19 -5 -55 -9 -80 -3 -25 -15 -110 -26 -190 -11 -80
-25 -181 -31 -225 -13 -104 -41 -285 -53 -355 -4 -19 -8 -48 -11 -65 -13 -93
-49 -302 -75 -435 -13 -68 -86 -325 -100 -349 -16 -30 -25 -20 -40 43 -23 97
5 894 50 1426 17 202 29 352 40 485 6 72 12 153 15 180 4 48 14 178 35 438 10
123 24 283 40 477 5 63 14 171 19 240 13 155 19 238 26 315 3 33 8 92 10 130
3 39 16 207 30 375 13 168 27 339 30 380 4 41 10 185 16 320 5 135 13 353 19
485 5 132 12 296 15 365 2 69 7 186 10 260 4 74 8 185 10 245 2 61 9 225 15
365 6 140 15 359 20 485 18 440 7 1856 -20 2750 -16 494 -18 554 -25 725 -12
313 -15 379 -25 570 -34 634 -45 811 -81 1310 -6 85 -12 178 -14 205 -2 28 -6
84 -9 125 -4 41 -9 104 -11 140 -15 212 -40 465 -75 778 -5 50 -15 133 -20
183 -6 50 -12 103 -15 117 -2 15 -9 63 -14 107 -25 199 -29 221 -66 465 -15
94 -60 364 -70 415 -2 11 -11 61 -20 110 -34 185 -45 242 -60 310 -9 39 -20
90 -26 115 -5 25 -18 83 -29 130 -11 47 -27 116 -35 154 -22 96 -155 586 -165
605 -5 9 -23 63 -40 121 -34 113 -67 213 -80 245 -5 11 -25 65 -45 120 -112
306 -350 809 -442 934 -73 99 -131 168 -177 209 -10 9 -31 29 -46 45 -16 15
-33 27 -39 27 -6 0 -11 4 -11 9 0 11 -76 61 -94 61 -7 0 -16 7 -20 15 -3 8
-17 15 -31 15 -14 0 -25 5 -25 10 0 6 -23 10 -50 10 -36 0 -52 4 -56 15 -4 10
-20 15 -45 15 -26 0 -42 -5 -45 -15 -4 -11 -21 -15 -55 -15 -27 0 -49 -4 -49
-10 0 -5 -11 -10 -24 -10 -13 0 -29 -7 -36 -15 -7 -9 -19 -14 -26 -11 -7 3
-15 -2 -18 -10 -3 -8 -12 -14 -20 -14 -8 0 -31 -16 -50 -35 -20 -19 -39 -35
-42 -35 -13 0 -135 -132 -197 -212 -36 -47 -96 -137 -133 -199 -37 -63 -70
-116 -73 -119 -3 -3 -14 -23 -25 -45 -10 -22 -23 -48 -28 -58 -32 -62 -121
-245 -128 -262 -4 -11 -12 -31 -18 -45 -6 -14 -25 -65 -43 -115 -43 -123 -53
-145 -61 -145 -5 0 -8 3 -8 8 0 10 -106 120 -159 165 -25 20 -55 37 -67 37
-12 0 -24 7 -28 15 -4 10 -20 15 -50 15 -30 0 -46 -5 -50 -15 -3 -8 -14 -15
-24 -15 -26 0 -70 -24 -112 -60 -19 -16 -38 -30 -42 -30 -5 0 -8 -6 -8 -13 0
-7 -9 -19 -20 -27 -11 -8 -20 -18 -20 -22 0 -5 -13 -22 -30 -39 -16 -17 -32
-40 -35 -50 -4 -11 -10 -19 -13 -19 -4 0 -16 -17 -27 -37 -11 -21 -25 -43 -31
-50 -7 -7 -46 -81 -87 -165 -77 -157 -107 -223 -137 -303 -5 -11 -16 -37 -25
-58 -32 -73 -78 -203 -196 -552 -176 -521 -194 -572 -315 -910 -14 -38 -37
-101 -51 -140 -24 -68 -32 -88 -67 -167 -9 -20 -16 -41 -16 -47 0 -6 -4 -19
-9 -29 -9 -18 -28 -63 -41 -97 -5 -11 -15 -36 -23 -55 -9 -19 -38 -92 -66
-163 -28 -70 -55 -135 -60 -145 -6 -9 -22 -44 -37 -77 -96 -215 -226 -445
-251 -445 -7 0 -13 -4 -13 -10 0 -20 -72 -11 -91 11 -37 43 -45 89 -60 334
-16 259 -16 723 -1 1810 21 1501 22 1553 23 1980 1 226 -1 430 -4 455 -3 25
-9 79 -12 120 -7 92 -33 197 -50 204 -20 7 -57 -108 -89 -274 -9 -47 -19 -96
-21 -110 -3 -14 -10 -56 -16 -95 -11 -73 -23 -146 -33 -205 -6 -34 -36 -247
-57 -405 -5 -44 -14 -100 -19 -125 -5 -25 -14 -85 -20 -135 -7 -49 -18 -128
-26 -175 -7 -47 -16 -107 -19 -135 -3 -27 -15 -103 -26 -168 -11 -65 -24 -151
-30 -190 -6 -40 -15 -99 -20 -132 -6 -33 -14 -82 -19 -110 -16 -98 -72 -411
-82 -460 -5 -27 -11 -57 -12 -65 -2 -8 -6 -33 -10 -55 -14 -75 -29 -140 -63
-267 -49 -184 -65 -220 -235 -533 -114 -211 -234 -418 -256 -441 -6 -6 -20
-30 -32 -54 -12 -24 -26 -48 -32 -54 -5 -6 -19 -28 -31 -48 -12 -21 -49 -84
-83 -140 -96 -161 -134 -240 -210 -436 -25 -64 -50 -127 -55 -139 -5 -13 -13
-33 -18 -45 -5 -13 -19 -52 -31 -88 -12 -36 -26 -74 -30 -85 -5 -11 -16 -44
-26 -72 -20 -60 -34 -68 -35 -20 0 17 -2 43 -4 57 -2 14 -8 57 -14 95 -5 39
-17 117 -25 175 -9 58 -21 141 -27 185 -6 44 -17 118 -24 165 -13 81 -18 117
-30 220 -3 25 -10 68 -15 95 -5 28 -19 115 -30 195 -34 234 -54 362 -64 420
-7 37 -9 48 -26 172 -6 43 -15 99 -20 125 -6 26 -15 75 -20 108 -12 78 -64
377 -85 485 -9 47 -23 121 -32 165 -22 120 -31 163 -49 240 -9 39 -20 88 -24
110 -4 22 -18 83 -30 135 -12 52 -30 131 -40 175 -23 101 -87 334 -99 360 -5
11 -21 61 -37 110 -46 148 -99 276 -145 345 -51 78 -132 160 -158 160 -10 0
-21 7 -25 15 -4 11 -21 15 -65 15 -43 0 -60 -4 -65 -15 -3 -8 -15 -15 -26 -15
-11 0 -20 -4 -20 -10 0 -5 -5 -10 -11 -10 -10 0 -72 -61 -109 -106 -57 -72
-121 -201 -184 -369 -21 -55 -42 -109 -46 -120 -5 -11 -37 -105 -71 -210 -34
-104 -65 -199 -70 -210 -5 -11 -15 -47 -24 -80 -9 -33 -20 -69 -25 -80 -19
-42 -287 -1004 -299 -1075 -5 -25 -16 -76 -26 -115 -38 -152 -65 -264 -85
-355 -12 -52 -32 -138 -45 -190 -13 -52 -33 -138 -45 -190 -45 -192 -62 -267
-85 -360 -13 -52 -33 -138 -45 -190 -36 -156 -60 -260 -85 -360 -32 -126 -54
-236 -72 -355 -2 -16 -9 -57 -15 -90 -5 -33 -14 -82 -18 -110 -5 -27 -23 -131
-40 -230 -17 -99 -35 -202 -40 -230 -10 -64 -70 -404 -75 -430 -3 -11 -9 -49
-14 -85 -6 -36 -24 -144 -41 -240 -17 -96 -35 -200 -40 -230 -5 -30 -23 -134
-40 -230 -17 -96 -35 -204 -41 -240 -5 -36 -11 -74 -13 -85 -3 -11 -11 -57
-20 -103 -21 -116 -53 -225 -89 -304 -28 -64 -32 -68 -63 -68 -48 0 -50 3 -94
265 -38 222 -89 629 -105 845 -3 36 -7 85 -10 110 -3 25 -7 70 -10 100 -3 30
-7 71 -10 90 -3 19 -7 67 -10 105 -2 39 -14 160 -25 270 -11 110 -25 245 -31
300 -5 55 -14 143 -19 195 -14 143 -28 275 -39 375 -14 123 -53 493 -56 530
-2 32 -10 102 -25 228 -12 98 -27 223 -40 335 -63 535 -97 677 -455 1922 -31
107 -78 272 -105 365 -111 386 -131 454 -154 530 -14 44 -42 134 -62 200 -44
145 -141 442 -154 470 -4 11 -16 43 -25 70 -9 28 -21 58 -26 67 -5 10 -9 22
-9 28 0 21 -150 369 -184 428 -20 33 -36 64 -36 69 0 23 -124 148 -167 168
-18 9 -33 20 -33 25 0 6 -13 10 -30 10 -16 0 -30 5 -30 10 0 6 -30 10 -70 10
-40 0 -70 -4 -70 -10z m10031 -2897 c7 -13 16 -23 20 -23 4 0 33 -33 64 -72
31 -40 61 -80 68 -88 22 -28 85 -135 137 -235 29 -55 56 -104 60 -110 4 -5 26
-57 49 -115 23 -58 46 -114 51 -125 41 -95 228 -765 255 -915 3 -14 12 -56 20
-95 24 -109 65 -295 75 -345 21 -107 112 -622 130 -740 5 -30 16 -100 25 -155
9 -55 20 -132 25 -172 5 -39 16 -114 24 -165 8 -51 25 -163 36 -248 12 -85 25
-184 30 -220 14 -105 22 -163 26 -190 1 -13 5 -45 9 -70 12 -87 15 -116 25
-205 6 -49 15 -128 21 -175 6 -47 14 -119 19 -160 16 -132 30 -253 39 -330 10
-82 44 -404 61 -570 5 -58 12 -123 15 -145 10 -96 16 -154 20 -205 2 -30 9
-109 15 -175 17 -188 43 -530 60 -770 5 -77 14 -210 20 -295 33 -483 66 -1254
75 -1745 2 -143 7 -334 10 -425 7 -214 7 -1513 0 -1740 -3 -96 -8 -296 -10
-445 -13 -737 -75 -2077 -114 -2465 -30 -295 -44 -403 -78 -625 -34 -223 -85
-437 -138 -576 -20 -52 -38 -79 -72 -109 -46 -40 -46 -40 -129 -40 -49 0 -84
4 -84 10 0 6 -7 10 -14 10 -8 0 -27 11 -42 25 -15 14 -32 25 -38 25 -14 1 -89
92 -138 168 -20 31 -41 62 -46 67 -17 21 -102 165 -152 260 -29 55 -56 105
-61 110 -9 12 -124 243 -162 325 -53 114 -146 327 -167 380 -12 30 -25 59 -29
65 -8 10 -49 114 -144 365 -81 212 -104 278 -196 560 -46 140 -87 264 -92 275
-4 11 -15 47 -24 80 -9 33 -20 69 -25 80 -9 20 -49 159 -148 520 -47 169 -61
223 -113 435 -12 47 -31 126 -44 175 -12 50 -30 128 -40 175 -9 47 -21 96 -25
110 -4 14 -1 56 6 95 44 231 54 291 68 390 58 427 66 872 19 1050 -19 72 -74
184 -111 227 -66 75 -157 157 -189 169 -13 5 -23 14 -23 20 0 6 -6 9 -14 6 -8
-3 -17 1 -20 9 -3 8 -12 14 -21 14 -8 0 -15 5 -15 10 0 6 -8 10 -19 10 -24 0
-38 37 -46 127 -3 39 -8 82 -10 95 -5 35 -16 129 -21 189 -2 30 -9 99 -15 154
-5 55 -14 147 -19 205 -5 58 -14 155 -20 215 -55 586 -104 1372 -115 1875 -3
118 -7 242 -10 276 -7 77 -7 1763 -1 1773 3 5 6 80 6 167 1 87 5 229 10 314 5
85 10 184 10 220 1 87 32 617 50 855 5 66 14 188 20 270 21 300 47 525 62 525
4 0 8 -4 8 -10 0 -5 7 -10 15 -10 8 0 15 -5 15 -10 0 -6 8 -14 17 -17 37 -15
173 -169 231 -263 34 -55 106 -208 136 -290 16 -41 32 -84 37 -95 11 -27 105
-371 113 -415 3 -19 10 -55 16 -80 9 -44 27 -150 36 -220 3 -19 11 -80 19
-135 22 -161 25 -210 35 -615 25 -960 29 -1100 36 -1149 6 -44 10 -51 29 -51
23 0 40 32 77 150 8 25 42 126 76 225 33 99 65 200 72 225 6 25 15 54 20 65
13 25 277 1011 313 1165 15 63 34 147 43 185 8 39 22 95 29 125 8 30 17 69 19
85 3 17 13 62 21 100 25 116 43 204 65 325 11 63 30 162 41 220 19 104 35 233
44 360 3 36 7 93 11 128 10 104 6 457 -6 602 -38 445 -148 848 -314 1148 -25
45 -46 87 -46 92 0 16 37 -11 51 -37z m-21507 -159 c4 -12 15 -15 36 -12 20 3
30 0 30 -9 0 -7 11 -13 25 -13 14 0 25 -4 25 -10 0 -5 7 -10 15 -10 9 0 18 -7
21 -15 4 -8 11 -15 16 -15 6 0 21 -11 34 -25 13 -14 26 -25 29 -25 8 0 105
-101 105 -109 0 -4 9 -13 20 -21 11 -8 20 -19 20 -25 0 -6 10 -21 23 -35 77
-86 255 -419 336 -630 18 -47 36 -94 41 -105 4 -11 22 -60 40 -110 18 -49 36
-99 41 -110 13 -31 73 -218 114 -350 20 -66 45 -149 57 -185 33 -105 108 -380
108 -396 0 -8 13 -63 29 -122 16 -59 36 -145 46 -192 10 -47 24 -107 32 -135
8 -27 18 -70 22 -95 5 -25 23 -117 40 -205 18 -88 38 -194 46 -235 23 -123
122 -728 134 -825 7 -49 16 -119 21 -155 12 -78 40 -309 45 -365 2 -22 13
-130 25 -240 37 -350 52 -535 70 -825 31 -500 50 -956 72 -1700 16 -547 16
-2194 0 -2820 -17 -653 -35 -1207 -48 -1500 -4 -85 -7 -159 -5 -164 3 -11 -15
-268 -29 -436 -32 -355 -44 -479 -66 -635 -7 -55 -16 -123 -19 -150 -5 -47
-36 -228 -55 -320 -4 -22 -13 -65 -19 -95 -33 -174 -91 -384 -149 -545 -37
-105 -127 -304 -141 -315 -4 -3 -17 -25 -30 -50 -13 -25 -26 -47 -30 -50 -3
-3 -26 -30 -51 -60 -57 -70 -67 -80 -77 -80 -4 0 -17 -11 -27 -25 -10 -14 -27
-25 -37 -25 -11 0 -19 -4 -19 -10 0 -5 -14 -10 -30 -10 -18 0 -33 -6 -36 -15
-4 -11 -21 -15 -55 -15 -27 0 -49 -4 -49 -10 0 -6 -35 -10 -85 -10 -50 0 -85
4 -85 10 0 6 -22 10 -49 10 -34 0 -51 4 -55 15 -3 9 -18 15 -36 15 -16 0 -30
5 -30 10 0 6 -11 10 -24 10 -13 0 -26 7 -30 15 -3 8 -15 15 -26 15 -11 0 -20
4 -20 8 0 5 -16 14 -35 22 -19 7 -36 19 -39 27 -3 7 -12 13 -21 13 -8 0 -15 5
-15 10 0 6 -7 10 -15 10 -8 0 -15 7 -15 15 0 8 -7 15 -15 15 -8 0 -15 5 -15
10 0 6 -5 10 -11 10 -15 0 -136 127 -219 229 -19 23 -45 55 -58 69 -29 33
-127 168 -164 225 -27 42 -144 253 -163 292 -5 11 -24 52 -42 90 -46 95 -110
247 -130 303 -8 26 -23 65 -33 87 -10 22 -28 69 -40 105 -12 36 -26 74 -30 85
-5 11 -12 31 -15 45 -3 14 -12 41 -20 60 -39 104 -183 623 -235 850 -11 52
-25 111 -30 130 -8 32 -47 216 -56 265 -1 11 -7 43 -13 70 -26 135 -60 331
-79 455 -6 36 -13 79 -16 95 -6 35 -33 213 -40 265 -3 19 -7 55 -10 80 -3 25
-13 95 -22 155 -8 61 -19 146 -24 190 -25 215 -31 275 -35 330 -3 33 -7 83
-10 110 -3 28 -8 77 -10 110 -3 33 -10 119 -16 190 -82 1020 -112 2141 -84
3215 23 907 40 1316 85 2000 5 85 13 204 16 265 3 60 7 112 9 115 2 4 4 35 5
71 1 35 5 107 10 159 5 52 14 156 20 230 6 74 15 176 20 225 15 138 40 365 45
410 3 22 10 78 15 125 5 47 14 121 20 165 6 44 15 114 20 155 9 69 25 164 94
556 13 77 29 158 34 180 6 21 18 75 28 119 22 101 131 513 144 540 5 11 12 31
15 45 11 47 70 205 103 280 11 25 29 65 40 90 27 60 127 236 144 253 7 8 24
29 38 47 32 42 140 154 140 146 0 -4 10 3 23 16 25 26 54 46 80 54 9 4 17 10
17 15 0 5 9 9 20 9 11 0 23 6 26 13 3 9 16 12 34 9 21 -3 32 1 36 12 5 13 22
16 94 16 72 0 89 -3 94 -16z m11516 -80 c0 -4 15 -38 34 -78 55 -115 96 -206
96 -213 0 -7 40 -117 61 -168 58 -144 195 -616 264 -910 15 -66 34 -143 41
-171 12 -45 48 -213 61 -284 2 -14 11 -52 18 -85 13 -54 28 -134 55 -295 5
-30 16 -93 25 -140 8 -47 17 -101 19 -120 9 -65 24 -153 86 -520 34 -201 66
-387 70 -415 5 -27 13 -81 19 -120 7 -38 13 -79 16 -90 4 -18 9 -53 35 -210 4
-27 30 -185 58 -350 57 -341 80 -485 92 -600 5 -44 18 -154 29 -245 11 -91 23
-194 26 -230 3 -36 8 -76 10 -90 3 -14 7 -56 10 -95 3 -38 10 -113 16 -165 18
-171 30 -293 39 -405 5 -60 14 -162 19 -225 10 -115 27 -334 36 -465 3 -38 10
-124 16 -190 6 -67 9 -125 8 -130 -2 -6 1 -59 5 -120 7 -113 8 -130 26 -465
28 -518 31 -611 60 -1485 67 -2040 79 -4013 29 -4745 -24 -357 -72 -744 -115
-925 -9 -38 -19 -88 -23 -110 -12 -61 -69 -223 -102 -289 -33 -64 -76 -126
-98 -140 -7 -4 -22 -17 -32 -27 -11 -11 -25 -19 -33 -19 -8 0 -18 -5 -21 -10
-3 -5 -31 -10 -61 -10 -30 0 -54 5 -54 10 0 6 -11 10 -24 10 -13 0 -27 7 -30
16 -3 9 -11 14 -18 12 -16 -6 -151 131 -223 227 -33 44 -62 82 -65 85 -3 3
-23 34 -44 70 -22 36 -43 67 -48 68 -4 2 -8 7 -8 12 0 4 -17 39 -38 77 -83
146 -212 395 -212 407 0 3 -18 42 -39 88 -22 46 -58 130 -81 188 -40 100 -50
125 -86 206 -30 68 -144 384 -210 584 -25 74 -49 144 -54 155 -4 11 -22 67
-40 125 -18 58 -36 114 -40 125 -14 36 -68 208 -90 290 -11 44 -25 89 -30 100
-12 24 -240 865 -240 883 0 7 -13 61 -28 120 -16 59 -39 152 -51 207 -45 200
-51 226 -66 288 -36 153 -39 181 -26 253 80 444 86 485 111 784 13 144 7 532
-8 635 -11 73 -37 138 -86 214 -32 50 -179 201 -195 201 -6 0 -11 5 -11 10 0
6 -9 10 -19 10 -10 0 -21 7 -25 15 -3 8 -12 15 -21 15 -8 0 -15 5 -15 10 0 6
-9 10 -20 10 -11 0 -20 5 -20 10 0 6 -7 10 -15 10 -24 0 -32 29 -49 185 -9 83
-21 184 -26 225 -5 41 -14 125 -20 185 -6 61 -15 151 -20 200 -9 89 -24 253
-35 390 -3 39 -7 93 -10 120 -2 28 -6 86 -10 130 -3 44 -8 107 -10 140 -6 66
-20 304 -36 580 -60 1066 -60 2347 0 3425 6 107 13 238 16 290 3 52 10 133 15
180 5 47 9 92 8 100 -2 8 2 60 7 115 5 55 9 111 10 125 2 32 13 157 26 285 5
55 16 172 25 260 28 286 35 330 50 291 3 -9 11 -16 16 -16 5 0 22 -12 38 -27
15 -16 36 -35 46 -44 11 -9 35 -35 53 -59 19 -23 41 -48 48 -56 7 -7 13 -16
13 -20 0 -4 11 -22 25 -40 71 -94 238 -518 259 -660 4 -22 11 -56 17 -75 24
-81 84 -432 108 -634 6 -49 11 -157 11 -240 0 -82 4 -235 10 -340 5 -104 9
-248 9 -320 0 -71 3 -202 6 -290 3 -88 7 -230 9 -315 2 -85 7 -163 11 -172 13
-31 45 -21 61 19 29 67 174 498 174 514 0 6 6 25 14 42 8 18 36 111 62 207 26
96 50 180 54 185 10 14 189 703 230 885 20 87 36 156 76 325 7 33 26 119 40
190 100 489 127 677 145 995 32 570 -40 1067 -220 1518 -49 122 -52 143 -11
79 17 -26 30 -50 30 -53z m-1620 -1477 c0 -15 -19 -170 -25 -209 -11 -61 -72
-636 -96 -893 -21 -237 -47 -600 -54 -760 -3 -55 -7 -131 -10 -170 -27 -364
-27 -1560 0 -2055 3 -52 7 -153 10 -225 5 -130 16 -313 34 -540 6 -66 15 -185
21 -265 6 -80 15 -201 21 -270 5 -69 14 -181 19 -250 5 -69 14 -183 20 -255 5
-71 12 -168 15 -215 3 -47 7 -105 10 -130 3 -25 7 -83 10 -130 3 -47 7 -107
10 -135 3 -27 7 -86 10 -130 3 -44 10 -138 16 -210 23 -294 23 -316 5 -309 -9
3 -16 10 -16 15 0 5 -9 9 -20 9 -11 0 -20 5 -20 10 0 6 -7 10 -15 10 -7 0 -18
6 -22 13 -4 7 -25 21 -45 30 -20 10 -38 21 -40 25 -2 4 -25 18 -53 32 -27 14
-54 30 -58 37 -4 7 -15 13 -22 13 -8 0 -15 5 -15 10 0 6 -9 10 -19 10 -10 0
-21 7 -25 15 -3 8 -12 15 -21 15 -8 0 -15 5 -15 10 0 6 -9 10 -20 10 -11 0
-20 5 -20 10 0 6 -7 10 -15 10 -9 0 -18 7 -21 15 -4 8 -15 15 -25 15 -10 0
-19 5 -19 10 0 6 -7 10 -15 10 -7 0 -18 6 -22 13 -13 20 -51 37 -82 37 -49 0
-83 -25 -155 -111 -77 -93 -182 -371 -241 -639 -9 -41 -21 -93 -26 -115 -11
-53 -39 -207 -49 -275 -8 -52 -44 -285 -56 -360 -13 -83 -125 -767 -129 -785
-2 -11 -13 -72 -24 -135 -11 -63 -37 -191 -56 -285 -20 -93 -41 -190 -46 -214
-51 -246 -155 -491 -207 -491 -5 0 -12 -7 -16 -15 -3 -8 -17 -15 -31 -15 -16
0 -25 6 -25 15 0 8 -5 15 -11 15 -28 0 -72 76 -97 170 -32 119 -54 271 -83
595 -16 169 -16 778 -1 970 35 438 59 702 82 885 5 41 17 140 25 220 27 247
51 447 65 540 5 36 14 103 20 150 14 105 24 178 49 345 11 72 28 182 37 245 9
63 22 151 29 195 10 63 13 441 14 1792 1 941 3 1718 6 1725 2 7 6 49 9 93 6
98 33 332 46 400 5 28 14 86 20 130 6 44 15 96 20 115 5 19 14 62 21 95 6 33
18 85 25 115 7 30 16 71 19 90 5 34 68 244 85 285 5 11 16 43 25 70 10 28 22
61 27 75 6 14 14 34 18 45 39 98 152 307 187 343 7 7 13 16 13 20 0 4 10 19
23 33 12 15 33 41 47 59 38 50 108 120 120 120 5 0 10 6 10 13 0 8 11 20 25
27 14 7 25 17 25 22 0 4 6 8 14 8 8 0 16 7 20 15 3 10 19 15 45 15 22 0 43 5
46 10 3 6 26 10 50 10 29 0 45 5 49 15 3 10 19 15 45 15 22 0 43 5 46 10 3 6
26 10 51 10 24 0 44 5 44 10 0 6 20 10 44 10 26 0 48 6 56 15 8 9 30 15 56 15
24 0 44 5 44 10 0 6 20 10 44 10 30 0 46 5 50 15 7 19 86 21 86 2z m5104 -2
c3 -8 17 -15 31 -15 14 0 25 -4 25 -10 0 -5 5 -10 12 -10 19 0 124 -117 157
-175 38 -68 109 -234 149 -351 49 -143 131 -453 162 -609 4 -22 15 -74 23
-115 18 -84 43 -221 58 -320 6 -36 14 -87 19 -115 10 -61 28 -179 35 -243 4
-26 13 -94 21 -152 16 -120 29 -223 44 -345 5 -47 14 -122 20 -167 9 -76 62
-550 76 -677 3 -29 7 -63 9 -75 8 -51 19 -162 18 -176 -1 -8 2 -32 7 -54 9
-39 7 -52 -40 -256 -12 -52 -26 -113 -30 -135 -5 -22 -19 -92 -33 -155 -45
-207 -56 -264 -72 -360 -21 -123 -21 -126 -34 -187 -10 -52 -24 -154 -41 -300
-10 -81 -20 -171 -40 -335 -5 -46 -14 -125 -20 -176 -5 -52 -12 -107 -15 -124
-3 -17 -10 -74 -16 -127 -11 -106 -22 -201 -38 -333 -21 -170 -32 -264 -36
-318 -3 -30 -8 -67 -11 -81 -3 -14 -7 -48 -9 -75 -5 -63 -28 -266 -55 -489
-15 -123 -29 -310 -60 -845 -5 -96 -12 -220 -15 -275 -3 -55 -10 -154 -15
-220 -6 -66 -9 -127 -8 -135 2 -8 -1 -71 -6 -140 -5 -69 -10 -154 -12 -190 -2
-36 -8 -139 -13 -230 -6 -91 -17 -316 -25 -500 -9 -184 -17 -344 -19 -355 -1
-14 -13 -1 -39 45 -20 36 -45 76 -55 89 -33 43 -131 141 -141 141 -5 0 -12 7
-16 15 -3 8 -12 15 -21 15 -8 0 -15 5 -15 10 0 6 -18 10 -39 10 -22 0 -41 5
-43 12 -2 6 -17 12 -32 13 -21 0 -42 -12 -81 -50 -59 -56 -61 -59 -109 -179
-37 -91 -77 -231 -95 -336 -7 -36 -16 -87 -21 -115 -5 -27 -12 -76 -15 -109
-4 -32 -8 -68 -10 -80 -18 -117 -40 -403 -55 -701 -23 -460 -49 -847 -80
-1175 -6 -63 -13 -144 -15 -180 -3 -36 -7 -81 -10 -100 -3 -19 -7 -55 -10 -80
-10 -98 -17 -151 -36 -290 -11 -80 -24 -167 -29 -195 -5 -27 -14 -81 -20 -120
-6 -38 -15 -83 -20 -100 -4 -16 -15 -68 -25 -115 -25 -128 -105 -366 -146
-440 -21 -37 -47 -71 -63 -78 -14 -7 -26 -17 -26 -23 0 -5 -11 -9 -25 -9 -14
0 -25 -4 -25 -10 0 -16 -70 -12 -76 4 -3 8 -12 12 -19 10 -7 -3 -36 19 -65 48
-58 58 -122 181 -165 312 -46 144 -93 477 -116 831 -13 203 -7 963 10 1265 5
102 12 237 15 300 3 63 8 169 11 235 4 66 8 158 10 205 6 126 23 478 35 700
22 411 47 929 55 1105 3 72 9 198 14 280 6 83 9 159 9 170 -1 18 5 133 32 665
23 449 31 616 40 815 23 506 31 649 40 785 15 237 19 292 26 358 3 34 7 81 9
105 6 96 16 207 25 282 5 44 14 125 20 180 28 264 56 472 120 915 46 322 60
414 66 430 3 8 9 44 14 80 6 36 19 112 30 170 27 146 260 1538 276 1650 2 19
14 87 25 150 11 63 25 144 30 180 6 36 14 88 19 115 17 104 32 192 39 240 5
28 17 104 29 170 26 151 31 179 38 235 3 25 9 63 14 85 5 22 17 81 25 130 24
132 88 366 125 460 4 11 21 54 38 96 59 153 172 309 223 309 11 0 22 7 25 15
4 8 18 15 34 15 16 0 30 -7 34 -15z m4972 -47 c-20 -187 -26 -254 -36 -368 -6
-69 -15 -163 -20 -210 -5 -47 -8 -92 -7 -100 1 -8 -2 -57 -7 -109 -5 -52 -10
-119 -11 -150 -2 -31 -8 -135 -15 -231 -43 -670 -55 -1120 -55 -2065 0 -969
20 -1706 70 -2510 2 -44 7 -127 10 -185 12 -197 14 -235 24 -370 10 -125 15
-187 41 -495 23 -276 23 -285 11 -285 -6 0 -11 5 -11 10 0 6 -9 10 -19 10 -10
0 -21 7 -25 15 -3 8 -12 15 -21 15 -8 0 -15 5 -15 10 0 6 -9 10 -19 10 -10 0
-21 7 -25 15 -3 8 -12 15 -21 15 -8 0 -15 5 -15 10 0 6 -9 10 -20 10 -11 0
-20 5 -20 10 0 6 -7 10 -15 10 -9 0 -18 7 -21 15 -4 8 -15 15 -25 15 -10 0
-19 5 -19 10 0 6 -7 10 -15 10 -9 0 -18 7 -21 15 -4 8 -15 15 -25 15 -10 0
-19 4 -19 8 0 5 -16 14 -35 22 -19 7 -36 19 -39 27 -3 7 -15 13 -26 13 -11 0
-20 4 -20 9 0 5 -8 12 -17 15 -33 13 -63 31 -63 38 0 5 -20 8 -45 8 -25 0 -45
-4 -45 -10 0 -5 -4 -10 -10 -10 -15 0 -84 -72 -106 -110 -10 -19 -23 -38 -27
-41 -32 -24 -184 -477 -211 -629 -3 -19 -10 -57 -16 -85 -17 -83 -19 -94 -45
-255 -123 -764 -204 -1243 -235 -1395 -4 -22 -15 -76 -23 -120 -9 -44 -26
-123 -37 -175 -12 -52 -26 -115 -31 -140 -18 -87 -53 -206 -79 -270 -37 -89
-93 -170 -118 -170 -6 0 -12 -7 -16 -15 -8 -21 -42 -19 -67 6 -48 48 -89 137
-108 236 -11 54 -22 116 -24 138 -3 22 -12 99 -20 170 -31 258 -40 463 -34
805 5 317 11 428 37 735 6 72 13 153 15 180 2 28 6 70 9 95 8 66 14 126 21
205 4 39 18 162 31 275 14 113 29 241 34 285 5 44 11 94 14 110 3 17 10 66 16
110 5 44 17 127 25 185 8 58 17 125 20 150 5 47 16 124 20 150 2 8 6 40 9 70
7 56 28 196 67 448 l22 143 -5 1628 c-3 895 -2 1679 3 1742 15 208 47 470 78
644 5 28 16 88 25 135 8 47 20 103 27 125 6 22 12 49 14 60 4 34 57 229 65
240 4 6 11 26 15 45 18 86 214 530 234 530 4 0 15 17 26 38 11 20 30 47 43 60
12 13 22 28 22 35 0 7 9 19 20 27 11 8 20 18 20 22 0 7 128 138 135 138 5 0
40 27 67 53 11 10 34 17 58 17 22 0 40 5 40 10 0 6 20 10 44 10 30 0 46 5 50
15 4 10 20 15 51 15 25 0 45 5 45 10 0 6 20 10 44 10 25 0 48 5 51 10 3 6 26
10 50 10 29 0 45 5 49 15 4 10 20 15 51 15 25 0 45 5 45 10 0 6 20 10 45 10
31 0 47 5 51 15 4 9 19 15 36 15 l30 0 -6 -62z m-2239 -195 c97 -91 130 -245
154 -718 11 -221 11 -276 -5 -470 -17 -232 -39 -443 -56 -560 -6 -38 -19 -133
-30 -210 -20 -136 -73 -459 -90 -540 -33 -168 -94 -454 -109 -520 -10 -44 -28
-120 -39 -170 -11 -49 -32 -131 -46 -182 -14 -51 -26 -99 -26 -107 0 -8 -27
-115 -61 -238 -76 -279 -89 -407 -71 -698 7 -102 13 -194 16 -205 2 -11 7 -47
10 -80 13 -112 52 -335 98 -560 11 -55 22 -109 24 -120 4 -21 23 -103 54 -225
18 -70 47 -200 55 -245 2 -11 8 -42 14 -70 54 -276 132 -757 147 -910 4 -38 8
-77 9 -85 2 -14 11 -93 35 -315 23 -208 41 -454 60 -795 7 -130 7 -534 -2
-1350 -29 -2683 -16 -3715 61 -4725 6 -71 13 -161 16 -200 3 -38 8 -92 10
-120 3 -27 8 -72 10 -100 2 -27 8 -77 12 -110 3 -33 6 -63 5 -67 -2 -10 35
-262 48 -318 5 -25 14 -74 21 -109 15 -91 57 -191 79 -191 13 0 22 19 38 83
45 180 75 499 102 1087 13 280 26 561 40 835 6 121 13 272 15 335 2 63 7 165
10 225 3 61 8 160 10 220 22 493 42 876 49 930 4 22 13 99 21 170 20 167 52
387 61 420 2 6 7 33 12 60 71 381 171 704 292 947 22 43 49 88 60 100 11 12
20 25 20 28 0 4 8 16 18 27 9 11 28 35 42 53 39 52 157 170 169 170 6 0 11 5
11 10 0 6 7 10 15 10 8 0 15 4 15 9 0 11 56 41 77 41 7 0 13 7 13 15 0 12 18
15 100 15 80 0 102 -3 106 -15 4 -8 12 -15 20 -15 18 0 103 -85 141 -141 34
-50 103 -193 103 -213 0 -7 3 -16 6 -19 23 -22 118 -377 155 -572 25 -136 29
-163 34 -220 2 -33 7 -89 10 -125 3 -36 8 -112 10 -170 13 -297 26 -622 35
-855 17 -461 23 -545 40 -545 12 0 50 74 50 97 0 9 20 91 44 182 49 189 81
319 97 406 6 33 17 92 24 130 8 39 20 106 29 150 8 44 24 134 36 200 12 66 23
129 25 140 2 11 13 70 24 130 11 61 29 160 40 220 59 326 105 581 124 693 6
34 13 62 16 62 4 0 44 -141 89 -312 46 -172 128 -482 183 -688 55 -206 102
-388 105 -403 7 -41 199 -744 235 -862 59 -190 61 -196 159 -445 97 -246 250
-527 325 -595 19 -18 139 -166 205 -254 14 -19 35 -45 47 -60 13 -14 23 -29
23 -32 0 -3 11 -19 25 -35 14 -16 25 -32 25 -36 0 -4 6 -13 13 -20 6 -7 25
-33 42 -58 16 -25 32 -47 35 -50 3 -3 21 -30 40 -60 19 -30 40 -61 47 -68 7
-7 13 -17 13 -21 0 -5 26 -56 58 -113 121 -215 169 -369 202 -634 6 -49 13
-100 15 -114 19 -118 36 -470 32 -645 -5 -188 -11 -254 -37 -435 -6 -41 -13
-93 -16 -115 -3 -22 -12 -71 -20 -110 -9 -38 -20 -90 -25 -115 -11 -53 -47
-187 -58 -215 -14 -38 -96 -198 -106 -209 -6 -6 -18 -24 -28 -39 -29 -45 -130
-157 -142 -157 -3 0 -18 -12 -34 -28 -49 -48 -105 -92 -118 -92 -7 0 -13 -7
-13 -16 0 -9 -5 -12 -12 -8 -6 4 -16 1 -22 -7 -6 -8 -28 -23 -48 -32 -21 -10
-38 -22 -38 -27 0 -6 -7 -10 -15 -10 -24 0 -127 -110 -187 -200 -120 -182
-211 -403 -291 -710 -56 -216 -85 -336 -112 -470 -14 -69 -31 -156 -39 -195
-25 -123 -45 -227 -66 -353 -18 -109 -36 -165 -110 -357 -5 -11 -17 -41 -29
-67 -12 -26 -21 -51 -21 -55 0 -8 -59 -164 -79 -208 -5 -11 -21 -54 -36 -95
-40 -107 -167 -349 -213 -405 -5 -6 -17 -24 -28 -40 -37 -58 -175 -205 -192
-205 -5 0 -13 -7 -16 -16 -3 -8 -10 -13 -15 -10 -5 3 -11 -1 -15 -9 -3 -8 -12
-15 -21 -15 -8 0 -15 -4 -15 -10 0 -5 -11 -10 -25 -10 -16 0 -25 -6 -25 -15 0
-9 -9 -15 -25 -15 -14 0 -25 -4 -25 -10 0 -5 -22 -10 -49 -10 -34 0 -51 -4
-55 -15 -8 -21 -99 -21 -116 0 -8 10 -30 15 -61 15 -26 0 -51 4 -54 10 -3 5
-20 10 -36 10 -17 0 -32 6 -35 15 -4 8 -19 15 -34 15 -16 0 -32 5 -35 10 -3 6
-15 10 -26 10 -11 0 -22 7 -26 16 -3 8 -12 13 -20 10 -7 -3 -16 1 -19 9 -4 8
-15 15 -25 15 -10 0 -19 5 -19 10 0 6 -7 10 -15 10 -9 0 -18 7 -21 15 -4 8
-15 15 -25 15 -10 0 -19 5 -19 10 0 6 -6 10 -14 10 -8 0 -17 7 -20 16 -4 9 -9
14 -12 11 -3 -3 -14 2 -24 11 -30 29 -69 60 -102 83 -43 31 -258 247 -258 259
0 5 -4 10 -10 10 -5 0 -46 46 -92 103 -45 56 -85 104 -88 107 -3 3 -31 41 -61
85 -30 44 -60 86 -66 93 -7 7 -13 17 -13 21 0 4 -8 16 -17 27 -10 10 -67 93
-128 184 -60 91 -112 167 -115 170 -3 3 -32 46 -65 95 -33 50 -62 92 -65 95
-3 3 -32 45 -65 95 -33 49 -63 94 -68 100 -31 41 -87 128 -87 135 0 6 -3 10
-7 10 -26 2 -279 462 -415 755 -134 285 -304 721 -416 1062 -84 255 -177 555
-208 673 -9 36 -21 70 -26 76 -16 21 -20 100 -9 194 6 52 15 138 21 190 6 52
13 122 15 155 3 33 7 83 10 110 3 28 8 75 10 105 2 30 7 82 10 115 8 80 21
238 45 543 47 595 94 1522 115 2272 2 91 7 251 10 355 3 105 8 363 11 575 3
212 8 388 10 392 5 8 5 2408 0 2416 -2 4 -7 194 -10 422 -19 1219 -79 2687
-156 3865 -6 88 -13 198 -16 245 -2 47 -9 123 -14 170 -5 47 -8 92 -7 100 1 8
-2 53 -7 100 -4 47 -10 110 -11 140 -4 51 -10 124 -35 395 -6 61 -15 157 -20
215 -5 58 -14 150 -20 205 -19 174 -50 489 -51 515 -1 24 3 47 36 195 8 39 29
137 45 219 17 83 37 173 44 200 7 28 24 96 36 151 29 126 208 793 220 820 5
11 14 38 20 60 6 22 15 49 20 60 5 11 13 36 18 55 20 76 127 338 182 445 58
113 93 161 109 150 5 -2 11 2 15 10 3 10 19 15 44 15 31 0 47 -8 79 -37z
m-1524 -6440 c8 -86 24 -253 32 -323 2 -25 9 -90 15 -145 5 -55 14 -145 20
-200 6 -55 15 -148 20 -207 9 -102 16 -179 40 -440 14 -154 38 -605 55 -1033
2 -55 6 -170 10 -255 66 -1687 76 -2106 82 -3595 4 -1161 1 -1477 -14 -1461
-3 3 -12 40 -19 83 -7 43 -29 170 -49 283 -20 113 -40 237 -46 275 -5 39 -13
95 -19 125 -5 30 -14 87 -20 125 -6 39 -15 97 -20 130 -11 68 -50 379 -55 440
-2 22 -9 85 -15 140 -23 208 -45 477 -60 750 -61 1056 -75 1532 -75 2625 0
1095 16 1602 75 2430 5 74 13 181 16 237 4 56 10 100 14 98 4 -2 10 -39 13
-82z m-13533 -5863 c0 -5 5 -10 10 -10 15 0 45 -30 60 -60 28 -53 81 -289 100
-446 6 -49 13 -98 16 -109 13 -59 49 -474 59 -670 3 -55 7 -136 10 -180 26
-415 26 -1891 0 -2315 -3 -47 -8 -132 -10 -190 -6 -171 -33 -541 -55 -760 -6
-58 -15 -148 -20 -200 -17 -170 -34 -278 -86 -540 -28 -141 -110 -409 -140
-457 -8 -12 -14 -27 -14 -34 0 -14 -81 -136 -113 -169 -45 -47 -77 -70 -97
-70 -11 0 -20 -4 -20 -9 0 -15 -129 -18 -135 -3 -2 6 -11 12 -20 12 -8 0 -15
5 -15 10 0 6 -7 10 -15 10 -9 0 -18 7 -21 15 -4 8 -10 15 -15 15 -4 0 -29 20
-55 45 -25 25 -49 45 -53 45 -4 0 -14 11 -21 25 -7 14 -19 25 -27 25 -7 0 -13
6 -13 13 0 7 -9 19 -20 27 -11 8 -20 18 -20 22 0 5 -13 22 -30 40 -16 17 -30
34 -30 39 0 4 -6 14 -13 21 -39 40 -297 479 -297 506 0 3 -11 29 -25 59 -31
65 -73 159 -87 193 -6 14 -15 33 -20 43 -45 88 -157 426 -177 537 -5 25 -18
92 -30 150 -12 58 -26 148 -32 200 -15 132 -19 392 -7 470 28 191 50 322 64
385 26 110 146 558 155 575 4 8 19 53 34 100 14 47 30 94 35 105 5 11 13 36
19 55 5 19 36 112 69 205 33 94 66 186 72 205 7 19 23 65 36 103 13 37 36 100
50 140 14 39 32 88 39 107 57 148 105 277 105 283 0 4 8 26 19 50 10 23 27 65
36 92 10 28 27 70 37 95 24 54 32 74 49 120 14 39 114 278 149 356 137 308
236 509 284 574 53 74 123 140 147 140 10 0 19 5 19 10 0 6 14 10 30 10 17 0
30 -4 30 -10z m12589 -891 c1 -55 3 -104 5 -108 3 -4 5 -36 6 -72 1 -35 6
-111 10 -169 5 -58 14 -168 20 -245 32 -414 65 -733 105 -1015 8 -58 17 -127
20 -155 14 -118 67 -442 110 -670 2 -11 13 -74 25 -140 11 -66 24 -138 29
-160 13 -60 69 -337 75 -371 3 -16 11 -54 17 -84 6 -30 15 -73 19 -95 4 -22
18 -83 30 -135 34 -151 50 -221 60 -274 6 -27 14 -65 20 -85 5 -20 16 -70 25
-111 37 -171 64 -275 173 -675 l114 -420 -42 -255 c-42 -257 -62 -370 -101
-567 -12 -60 -27 -139 -34 -178 -7 -38 -27 -135 -45 -215 -17 -80 -36 -164
-41 -188 -4 -23 -19 -84 -32 -135 -13 -50 -32 -123 -41 -162 -17 -71 -81 -284
-96 -320 -4 -11 -15 -42 -25 -70 -17 -52 -23 -66 -48 -125 -8 -19 -36 -87 -62
-150 -57 -141 -180 -374 -240 -455 -24 -33 -54 -77 -66 -97 -13 -21 -29 -38
-36 -38 -7 0 -13 -3 -13 -7 0 -11 -46 -63 -55 -63 -4 0 -16 -11 -27 -25 -11
-14 -26 -25 -34 -25 -8 0 -14 -4 -14 -10 0 -5 -7 -10 -15 -10 -9 0 -18 -7 -21
-15 -4 -8 -17 -15 -30 -15 -13 0 -24 -4 -24 -10 0 -5 -18 -10 -40 -10 -27 0
-43 -5 -46 -15 -8 -20 -63 -20 -70 0 -4 8 -17 15 -30 15 -13 0 -24 5 -24 10 0
6 -4 10 -9 10 -24 0 -157 132 -247 245 -35 44 -68 85 -72 90 -5 6 -17 24 -28
40 -10 17 -29 41 -41 55 -13 14 -23 30 -23 37 0 6 -3 13 -7 15 -5 2 -21 23
-38 48 -16 25 -32 47 -35 50 -3 3 -23 34 -45 70 -21 36 -45 71 -52 78 -7 7
-13 18 -13 23 0 6 -11 25 -24 42 -13 18 -34 52 -47 77 -24 45 -33 59 -56 85
-7 7 -13 18 -13 24 0 5 -6 16 -13 23 -7 7 -34 42 -60 78 -26 36 -51 70 -55 75
-5 6 -17 24 -28 40 -10 17 -21 32 -24 35 -4 3 -53 70 -111 150 -296 409 -374
516 -386 528 -7 7 -13 17 -13 21 0 4 -8 16 -17 27 -10 10 -31 39 -47 64 -16
25 -36 54 -46 65 -29 33 -100 181 -100 207 0 8 -3 18 -7 22 -14 14 -90 269
-113 382 -42 200 -63 356 -86 617 -26 302 -8 980 32 1225 3 19 7 57 9 85 4 51
19 155 35 252 5 28 13 79 18 115 6 36 16 90 22 120 7 30 15 73 19 95 5 22 15
67 24 100 8 33 21 86 28 119 10 46 22 69 58 108 25 28 60 65 76 83 17 18 50
56 75 85 25 29 59 67 75 85 39 42 78 86 145 160 150 169 187 210 215 240 17
18 57 63 90 100 33 37 70 78 83 91 12 12 22 28 22 34 0 5 7 10 15 10 8 0 15 4
15 8 0 5 23 33 50 62 28 29 50 57 50 62 0 4 7 8 15 8 8 0 15 5 15 10 0 6 15
26 33 44 17 18 55 59 82 91 28 32 61 70 75 85 14 15 45 50 70 78 25 27 77 85
115 128 39 43 81 90 95 105 14 15 46 51 72 81 26 30 60 68 75 84 15 17 51 56
78 87 28 32 76 84 108 117 31 33 57 63 57 66 0 4 11 16 24 28 15 13 48 86 91
196 37 96 71 184 75 195 28 71 71 195 76 220 18 80 32 51 33 -66z m7996 -1679
c3 -5 20 -10 36 -10 17 0 32 -6 35 -15 4 -8 13 -15 21 -15 20 0 102 -85 146
-152 45 -68 116 -220 151 -323 15 -44 32 -89 37 -100 16 -35 116 -417 133
-505 102 -546 133 -1277 75 -1780 -33 -290 -121 -722 -168 -835 -5 -11 -19
-49 -31 -85 -12 -36 -46 -114 -75 -175 -42 -87 -66 -124 -119 -177 -36 -38
-69 -68 -75 -68 -5 0 -11 -7 -15 -15 -3 -8 -12 -12 -19 -9 -8 3 -17 -2 -20
-10 -4 -10 -18 -16 -36 -16 -16 0 -33 -4 -36 -10 -3 -5 -19 -10 -36 -10 -16 0
-29 5 -29 10 0 6 -13 10 -29 10 -16 0 -34 7 -41 15 -7 9 -15 13 -18 11 -9 -9
-114 109 -145 164 -54 92 -137 268 -137 290 0 5 -4 18 -9 28 -42 80 -174 587
-195 752 -3 25 -13 95 -21 155 -8 61 -17 137 -20 170 -2 33 -10 132 -17 220
-25 316 -16 989 17 1176 2 13 9 58 14 99 13 91 35 211 56 305 9 39 18 84 21
100 9 45 34 137 44 160 5 11 21 61 36 110 36 118 109 291 141 334 45 59 128
136 166 154 20 10 37 22 37 27 0 6 15 10 34 10 19 0 38 5 41 10 3 6 15 10 25
10 10 0 22 -4 25 -10z"/>
</g>
</svg>
