<?xml version="1.0" standalone="no"?>
<!DOCTYPE svg PUBLIC "-//W3C//DTD SVG 20010904//EN"
 "http://www.w3.org/TR/2001/REC-SVG-20010904/DTD/svg10.dtd">
<svg version="1.0" xmlns="http://www.w3.org/2000/svg"
 width="2665.000000pt" height="797.000000pt" viewBox="0 0 2665.000000 797.000000"
 preserveAspectRatio="xMidYMid meet">

<g transform="translate(0.000000,797.000000) scale(0.100000,-0.100000)"
fill="#000000" stroke="none">
<path d="M6276 7446 c-76 -32 -122 -69 -168 -137 -94 -136 -88 -348 12 -462
85 -96 247 -142 412 -117 134 20 157 18 186 -15 23 -27 24 -35 19 -101 -14
-189 -186 -420 -470 -633 -54 -40 -97 -76 -95 -80 2 -4 14 -32 27 -64 14 -31
30 -57 36 -57 21 0 197 110 278 174 289 227 463 514 496 817 31 283 -98 543
-324 655 -79 39 -79 39 -214 42 -126 2 -141 1 -195 -22z"/>
<path d="M500 7316 l0 -63 81 -7 c223 -19 317 -71 516 -290 l83 -90 0 -1616
c0 -1050 -4 -1663 -11 -1751 -31 -390 -118 -529 -372 -589 -67 -15 -242 -40
-287 -40 -6 0 -10 -27 -10 -65 l0 -65 825 0 825 0 0 64 0 64 -67 7 c-393 39
-507 140 -569 506 -16 96 -18 227 -21 1619 l-3 1515 21 -25 c12 -14 710 -881
1552 -1927 l1531 -1903 58 0 58 0 0 1818 c0 1726 5 2070 30 2253 38 276 121
394 325 464 36 12 276 54 313 55 1 0 2 29 2 65 l0 65 -825 0 -825 0 0 -64 0
-64 38 -6 c20 -3 66 -8 102 -11 290 -29 431 -134 484 -366 40 -169 40 -173 45
-1537 3 -732 3 -1331 -1 -1330 -6 3 -1109 1385 -2286 2865 l-407 512 -602 0
-603 1 0 -64z"/>
<path d="M7910 7316 l0 -65 43 -5 c167 -21 219 -29 267 -42 152 -43 224 -117
264 -271 34 -130 37 -328 33 -1983 -3 -1486 -5 -1632 -21 -1710 -45 -221 -135
-307 -364 -344 -48 -8 -117 -18 -154 -21 l-68 -7 0 -64 0 -64 1893 0 1893 0
153 578 c85 317 156 583 159 590 3 9 -20 12 -94 12 l-99 0 -69 -136 c-279
-547 -558 -723 -1226 -774 -299 -22 -966 -8 -1123 25 -80 17 -113 36 -142 86
-20 33 -20 55 -23 972 l-3 938 673 -4 c635 -3 678 -5 764 -24 143 -33 219 -79
278 -168 46 -69 90 -200 118 -352 l22 -123 78 0 78 0 0 815 0 816 -77 -3 -77
-3 -26 -135 c-70 -355 -152 -453 -423 -506 -69 -14 -188 -17 -745 -21 l-663
-5 3 834 c3 910 2 888 61 932 28 21 36 21 690 24 709 3 851 -4 1022 -48 262
-67 380 -219 454 -585 l18 -90 88 -3 88 -3 -7 348 c-3 191 -9 417 -12 501 l-6
152 -1859 0 -1859 0 0 -64z"/>
<path d="M12170 7316 l0 -65 58 -6 c212 -24 310 -87 440 -284 112 -169 220
-394 608 -1261 190 -426 481 -1076 647 -1445 165 -368 357 -798 427 -955 71
-157 163 -364 207 -460 l78 -175 55 -3 55 -3 199 503 c109 277 282 712 383
968 101 256 221 560 267 675 838 2119 815 2065 922 2226 93 140 177 187 387
214 l47 6 0 65 0 64 -720 0 -720 0 0 -64 0 -65 48 -6 c255 -30 346 -59 406
-126 61 -66 70 -152 36 -319 -11 -53 -38 -148 -59 -211 -34 -97 -1061 -2671
-1080 -2706 -4 -7 -107 212 -236 500 -126 281 -289 647 -363 812 -626 1400
-693 1556 -733 1699 -48 174 -5 269 143 315 20 7 106 18 192 25 86 7 158 15
160 17 2 2 6 31 7 64 l3 60 -932 3 -932 2 0 -64z"/>
<path d="M17310 7316 l0 -65 43 -5 c234 -29 287 -41 367 -81 55 -28 115 -92
140 -149 10 -22 27 -81 37 -131 17 -85 18 -186 18 -1820 0 -1369 -3 -1745 -13
-1800 -23 -123 -50 -190 -99 -245 -73 -81 -151 -112 -343 -135 -63 -8 -123
-15 -132 -15 -15 0 -18 -10 -18 -65 l0 -65 1895 0 c1042 0 1895 3 1895 6 0 5
290 1100 306 1157 5 15 -4 17 -93 17 l-98 0 -72 -143 c-95 -188 -179 -313
-283 -418 -271 -275 -592 -359 -1370 -359 -483 0 -722 22 -791 71 -61 43 -59
1 -59 1024 l0 936 673 -4 c592 -3 681 -6 747 -21 248 -57 332 -163 399 -500
l27 -141 82 -3 82 -3 -2 813 -3 813 -80 0 -79 0 -17 -101 c-45 -271 -115 -410
-238 -477 -136 -74 -286 -87 -1023 -87 l-568 0 2 848 c3 797 4 849 21 880 36
66 11 64 811 59 779 -5 809 -7 982 -61 222 -71 335 -225 399 -547 9 -46 19
-92 21 -101 5 -15 18 -18 91 -18 l86 0 -7 403 c-3 221 -9 446 -12 500 l-7 97
-1858 0 -1859 0 0 -64z"/>
<path d="M21637 7374 c-4 -4 -7 -33 -7 -65 l0 -58 48 -6 c268 -38 358 -65 431
-131 55 -50 84 -108 103 -209 19 -100 19 -3554 0 -3662 -41 -237 -120 -309
-378 -348 -60 -9 -129 -19 -154 -23 l-45 -7 -3 -62 -3 -63 976 0 975 0 0 65
c0 46 -4 65 -13 65 -42 0 -272 32 -320 45 -182 48 -260 146 -287 365 -6 51
-10 382 -10 842 l0 758 23 4 c12 3 99 7 194 10 l172 6 712 -923 c392 -507 767
-993 833 -1079 l121 -157 570 0 570 -1 -2 61 c-1 33 -3 62 -5 64 -2 2 -44 10
-93 18 -251 41 -350 116 -668 506 -919 1127 -1288 1583 -1285 1585 1 1 66 17
143 36 272 64 508 156 674 264 89 57 222 183 274 260 57 85 113 210 139 312
20 78 23 114 23 299 0 185 -3 221 -23 300 -67 263 -205 469 -406 605 -212 142
-508 243 -886 302 -131 21 -171 22 -1260 25 -619 2 -1129 1 -1133 -3z m1945
-264 c577 -55 888 -270 979 -678 25 -114 34 -305 20 -407 -45 -318 -173 -520
-414 -653 -282 -157 -547 -211 -1105 -225 l-112 -2 2 915 c3 868 4 917 22 952
22 46 73 79 146 94 69 15 321 17 462 4z"/>
<path d="M10410 1732 c-120 -89 -214 -216 -261 -352 -31 -89 -38 -303 -15
-405 23 -96 75 -197 151 -293 72 -90 182 -179 198 -163 8 8 -11 32 -59 79 -77
74 -112 134 -144 247 -27 96 -43 271 -35 385 16 225 64 351 176 460 62 61 82
90 62 90 -5 0 -37 -22 -73 -48z"/>
<path d="M16155 1770 c-3 -5 21 -35 54 -65 32 -31 73 -77 89 -103 63 -99 102
-272 102 -458 0 -270 -60 -443 -197 -563 -76 -66 -62 -86 19 -29 92 65 182
168 228 262 62 126 73 184 68 360 -4 133 -8 159 -31 219 -49 125 -162 275
-267 352 -52 38 -56 40 -65 25z"/>
<path d="M10580 1745 c0 -8 9 -15 21 -15 26 0 57 -16 92 -48 l27 -26 0 -370
c0 -227 -4 -386 -11 -409 -11 -42 -37 -62 -91 -72 -23 -4 -38 -13 -38 -21 0
-12 29 -14 172 -12 116 2 173 7 175 14 2 7 -13 15 -34 19 -55 10 -81 30 -93
72 -7 25 -10 150 -8 365 l3 326 324 -404 c179 -222 330 -404 337 -404 10 0 14
95 16 443 3 395 5 445 20 473 17 31 60 54 99 54 11 0 19 7 19 15 0 13 -26 15
-175 15 -114 0 -175 -4 -175 -10 0 -6 6 -12 13 -14 6 -2 31 -9 55 -15 72 -20
75 -35 80 -378 2 -161 0 -293 -4 -293 -5 1 -135 160 -289 355 l-280 354 -127
1 c-107 0 -128 -2 -128 -15z"/>
<path d="M13180 1746 c0 -8 16 -16 40 -20 55 -9 77 -34 85 -98 3 -29 5 -214 3
-410 l-3 -356 -24 -26 c-13 -14 -40 -27 -62 -31 -24 -4 -39 -12 -39 -21 0 -12
62 -14 400 -14 l399 0 12 43 c57 209 57 208 41 215 -9 3 -20 -2 -26 -12 -72
-120 -103 -148 -191 -171 -67 -17 -288 -21 -329 -5 l-26 10 0 205 0 205 144 0
c79 0 157 -5 175 -11 33 -12 54 -42 66 -96 5 -23 12 -33 26 -33 18 0 19 9 19
170 0 160 -1 170 -19 170 -14 0 -22 -12 -30 -45 -21 -83 -53 -95 -263 -95
l-118 0 2 188 3 187 168 3 c98 1 185 -2 208 -8 44 -12 74 -51 85 -107 4 -24
12 -33 25 -33 17 0 19 9 19 105 l0 105 -395 0 c-328 0 -395 -2 -395 -14z"/>
<path d="M12541 1601 c-28 -39 -72 -88 -98 -109 -51 -44 -50 -62 2 -62 l34 0
3 -287 c3 -253 5 -292 21 -320 33 -62 114 -80 193 -44 36 16 94 75 94 94 0 13
-22 7 -47 -13 -26 -20 -78 -26 -99 -12 -30 20 -34 55 -34 316 l0 265 73 3 c66
3 72 5 75 26 3 21 0 22 -72 22 l-76 0 0 95 c0 52 -4 95 -9 95 -4 0 -31 -31
-60 -69z"/>
<path d="M15646 1495 c-122 -46 -143 -65 -73 -65 73 0 72 4 72 -305 0 -308 0
-307 -76 -320 -24 -4 -39 -12 -39 -21 0 -12 32 -14 185 -14 158 0 185 2 185
15 0 10 -10 15 -34 15 -22 0 -45 9 -63 24 l-28 24 -3 218 c-2 120 -1 228 3
241 6 26 59 89 87 104 15 8 29 4 67 -20 51 -33 71 -37 101 -21 43 23 32 117
-16 139 -66 30 -127 3 -201 -87 l-43 -53 0 86 c0 47 -3 84 -7 84 -5 -1 -57
-20 -117 -44z"/>
<path d="M11890 1481 c-93 -30 -164 -94 -207 -186 -25 -54 -28 -71 -28 -165 0
-94 3 -111 29 -167 35 -77 111 -152 181 -179 35 -13 75 -19 135 -19 78 0 90 3
149 35 75 40 129 103 162 187 18 46 23 78 24 153 0 84 -3 102 -28 155 -34 73
-86 128 -152 163 -42 22 -66 26 -145 29 -52 1 -106 -1 -120 -6z m138 -35 c76
-27 141 -125 163 -242 6 -32 9 -100 7 -150 -7 -159 -74 -254 -181 -254 -80 0
-138 44 -177 135 -49 114 -65 297 -34 389 35 103 131 156 222 122z"/>
<path d="M15033 1466 c-135 -63 -200 -195 -191 -391 3 -79 8 -101 36 -158 53
-107 134 -157 253 -157 122 0 236 73 298 190 18 34 31 64 28 67 -3 2 -36 -27
-74 -65 -54 -55 -77 -71 -115 -80 -69 -17 -107 -15 -164 12 -85 40 -141 134
-151 256 l-6 70 243 0 242 0 -7 48 c-22 151 -114 232 -264 232 -59 0 -88 -6
-128 -24z m160 -38 c32 -12 63 -66 73 -127 l7 -41 -163 0 -162 0 7 33 c28 127
120 179 238 135z"/>
<path d="M14042 1468 c3 -7 18 -16 35 -20 20 -5 39 -21 52 -42 12 -18 81 -169
155 -336 74 -167 139 -307 144 -312 16 -16 34 20 167 337 69 165 134 311 144
325 10 14 28 26 40 28 11 2 21 10 21 18 0 11 -22 14 -116 14 -121 0 -144 -11
-74 -34 26 -8 36 -17 38 -36 2 -14 -32 -112 -79 -225 -44 -110 -83 -208 -86
-217 -3 -10 -8 -18 -12 -18 -8 0 -191 444 -191 463 0 19 19 34 49 39 14 1 26
9 29 16 3 9 -33 12 -158 12 -122 0 -161 -3 -158 -12z"/>
</g>
</svg>
